<?xml version="1.0" encoding="UTF-8" standalone="no"?>
<!-- Created with Inkscape (http://www.inkscape.org/) -->

<svg
   xmlns:dc="http://purl.org/dc/elements/1.1/"
   xmlns:cc="http://creativecommons.org/ns#"
   xmlns:rdf="http://www.w3.org/1999/02/22-rdf-syntax-ns#"
   xmlns:svg="http://www.w3.org/2000/svg"
   xmlns="http://www.w3.org/2000/svg"
   xmlns:sodipodi="http://sodipodi.sourceforge.net/DTD/sodipodi-0.dtd"
   xmlns:inkscape="http://www.inkscape.org/namespaces/inkscape"
   width="744.09448819"
   height="1052.3622047"
   id="svg2"
   version="1.1"
   inkscape:version="0.48.5 r10040"
   sodipodi:docname="guidoc_icon.svg"
   inkscape:export-filename="/projects/devel/guidoc/doc/images/guidoc_icon.png"
   inkscape:export-xdpi="30.9"
   inkscape:export-ydpi="30.9">
  <defs
     id="defs4">
    <filter
       inkscape:collect="always"
       id="filter3779"
       x="-0.08256"
       width="1.16512"
       y="-0.11466667"
       height="1.2293333">
      <feGaussianBlur
         inkscape:collect="always"
         stdDeviation="8.6"
         id="feGaussianBlur3781" />
    </filter>
  </defs>
  <sodipodi:namedview
     id="base"
     pagecolor="#ffffff"
     bordercolor="#666666"
     borderopacity="1.0"
     inkscape:pageopacity="0.0"
     inkscape:pageshadow="2"
     inkscape:zoom="1.4"
     inkscape:cx="324.18064"
     inkscape:cy="709.47673"
     inkscape:document-units="px"
     inkscape:current-layer="layer1"
     showgrid="true"
     inkscape:window-width="1920"
     inkscape:window-height="1014"
     inkscape:window-x="0"
     inkscape:window-y="27"
     inkscape:window-maximized="1"
     inkscape:snap-grids="true">
    <inkscape:grid
       type="xygrid"
       id="grid2985" />
  </sodipodi:namedview>
  <metadata
     id="metadata7">
    <rdf:RDF>
      <cc:Work
         rdf:about="">
        <dc:format>image/svg+xml</dc:format>
        <dc:type
           rdf:resource="http://purl.org/dc/dcmitype/StillImage" />
        <dc:title></dc:title>
      </cc:Work>
    </rdf:RDF>
  </metadata>
  <g
     inkscape:label="Layer 1"
     inkscape:groupmode="layer"
     id="layer1">
    <rect
       y="232.36218"
       x="260"
       height="180"
       width="250"
       id="rect3765"
       style="fill:#333333;stroke:none;stroke-width:4;stroke-linecap:round;stroke-linejoin:round;stroke-miterlimit:4;stroke-dasharray:none;filter:url(#filter3779)" />
    <rect
       style="fill:#0066ff;stroke:none;stroke-width:4;stroke-linecap:round;stroke-linejoin:round;stroke-miterlimit:4;stroke-dasharray:none"
       id="rect2987"
       width="250"
       height="180"
       x="260"
       y="232.36218" />
    <rect
       style="fill:#5599ff;stroke:none"
       id="rect2989"
       width="250"
       height="25"
       x="260"
       y="232.36218" />
    <rect
       style="fill:#5599ff;stroke:none"
       id="rect2991"
       width="80"
       height="20"
       x="280"
       y="282.36218" />
    <rect
       style="fill:#5599ff;stroke:none"
       id="rect2993"
       width="80"
       height="20"
       x="280"
       y="322.36218" />
    <rect
       style="fill:#5599ff;stroke:none"
       id="rect2995"
       width="105"
       height="110"
       x="385"
       y="282.36218" />
    <path
       style="fill:none;stroke:#ffffff;stroke-width:1.0604161px;stroke-linecap:butt;stroke-linejoin:miter;stroke-opacity:1"
       d="m 491.17211,353.28146 c -6.88518,2.39719 -11.95896,8.11969 -15.99733,14.12146 -3.71342,4.76321 -6.97316,9.98281 -10.76186,14.7502 -1.8356,2.0182 -9.06676,7.80612 -7.76943,7.59321 3.43331,-3.52692 7.88733,-5.89464 10.64073,-10.06773 4.50281,-3.28068 7.43725,-7.76817 11.43531,-11.47096 4.22278,-5.87055 8.76859,-11.58883 14.05578,-16.46062 2.13496,-1.27339 7.93992,-7.34311 2.06143,-4.57664 -3.581,0.22186 -4.43161,4.95879 -4.28461,5.8405 -5.74795,-2.8207 -9.32564,4.46808 -13.36801,7.42672 -4.10472,3.14657 -7.70795,7.03278 -11.59155,10.60891 -3.97535,3.80385 -8.13293,7.83252 -12.70814,10.99562 -2.9913,0.38418 -8.15055,6.77971 -8.99391,4.44787 3.82027,-4.06342 5.81143,-9.12724 10.71583,-12.23111 2.61352,-1.60348 6.93626,-5.87902 10.0394,-8.949 3.08306,-3.05292 6.79064,-5.33647 9.43712,-8.89392 3.73386,-3.32998 7.02545,-7.15317 10.86085,-10.3634 2.81841,-3.3723 8.72627,-6.43841 9.98934,-7.50317 -3.33552,3.40236 -6.86286,5.5602 -10.702,8.61163 -4.80373,3.63281 -9.41246,7.55971 -14.34406,11.00011 4.63381,-3.70889 -4.75995,3.62584 -6.45176,5.29523 -5.47101,5.78307 -12.76519,9.30843 -18.14758,15.23594 -4.4496,4.69392 -10.51646,7.03231 -15.43705,11.01893 -1.11559,1.39271 4.89099,-6.35133 6.11092,-8.66014 3.78901,-4.76261 10.07607,-7.08461 12.28008,-13.17926 1.09901,-1.80483 3.81633,-8.5788 3.76309,-3.82418 3.82413,-3.98305 4.72338,-10.25335 10.03771,-13.10025 4.95461,-4.81594 11.15731,-8.0175 15.90751,-13.11996 4.30991,-3.70227 8.90496,-6.8652 13.14937,-10.68362 1.84453,-1.05925 7.27015,-6.31576 2.53074,-2.86833 -8.02545,6.65545 -15.46843,14.06048 -23.86196,20.23534 -5.19227,4.92482 -11.24591,8.71373 -16.25187,13.81114 -4.42227,4.52207 -9.55098,8.28172 -14.55606,12.07014 -6.17558,3.72179 -11.18878,9.04031 -17.21556,13.00007 -1.98999,1.96877 -9.47472,6.7447 -4.78676,1.07027 4.74674,-4.4313 9.08525,-9.31567 14.5883,-12.77647 4.93279,-4.07102 10.36543,-7.43871 14.78266,-12.11911 6.55873,-5.80829 12.17193,-12.78816 19.47048,-17.67735 4.73988,-4.22541 8.05443,-10.21047 13.53905,-13.54128 3.96403,-5.01684 7.81377,-9.67818 10.70661,-15.54921 0.49534,-1.3743 -5.05159,3.29573 -6.99406,4.42998 -3.70058,4.25241 -8.80524,6.70638 -12.79038,10.60168 -2.61614,5.24049 -9.05243,6.46295 -11.90205,11.5213 -4.65678,4.84518 -8.44752,10.38445 -14.09863,14.00317 -4.78134,3.12092 -9.1112,5.20515 -13.28515,9.27191 -4.04824,4.07633 -8.66467,7.39228 -13.34954,10.67987 -4.71116,3.92269 -8.04136,9.0611 -12.35018,13.24787 3.65673,-4.76908 7.8791,-9.04272 10.87651,-14.34102 3.44023,-5.39587 7.45792,-10.31699 11.02757,-15.60079 7.53704,-8.65669 15.84781,-16.55706 24.13546,-24.4312 4.07262,-4.11325 7.84764,-8.40778 11.64131,-12.69706 3.78989,-4.13698 7.76468,-8.15482 10.81667,-12.93993 2.75104,-4.02973 5.70304,-7.90107 8.64243,-11.62199 1.88608,-2.45546 4.94298,-5.59354 7.53535,-5.67661 -4.00597,3.90063 -7.41428,8.15495 -11.62159,11.83694 -2.90952,4.43123 -8.6466,6.65043 -11.14766,10.7458 -5.37505,3.27771 -9.63344,8.13683 -14.52292,12.08197 -3.83367,4.26007 -7.95983,8.1572 -12.31067,11.78527 -3.94552,4.75245 -8.5793,8.78355 -12.88586,13.18103 -5.03597,4.49148 -10.4265,8.73626 -14.62643,14.11323 -4.7909,4.8616 -8.72792,10.72588 -11.1349,17.17458 -2.28425,2.4669 -8.25471,8.41639 -9.01594,8.22045 4.36588,-4.89306 9.84637,-8.82966 13.27606,-14.62739 3.44901,-6.36021 8.40835,-11.53214 13.00461,-16.98598 3.99293,-4.92744 10.7992,-5.72778 14.9405,-10.34055 4.72945,-2.69597 7.30132,-8.6063 10.72103,-13.06518 4.71554,-8.25362 12.23727,-14.18156 17.48914,-22.04033 4.01725,-7.30567 8.67614,-14.3425 11.04539,-22.4751 1.9036,-4.4649 5.57502,-10.45135 6.90114,-13.63854 -4.70025,4.67515 -9.00919,9.48258 -13.9218,13.86262 -5.68247,4.72947 -13.49934,7.96734 -15.85251,15.767 -5.09726,4.14116 -8.57702,10.61972 -14.73491,13.13727 -5.05485,3.37917 -10.07346,6.76759 -15.55291,9.38287 -5.25585,3.57886 -10.9794,6.73008 -14.71111,12.15754 -4.47112,4.57719 -8.26226,9.63449 -12.67997,14.27198 -3.02676,4.93888 -5.94373,8.9382 -9.46078,13.35151 4.1431,-3.12417 7.67861,-7.02018 11.92571,-9.99662 5.34273,-5.1482 12.094,-8.47358 16.72292,-14.40606 4.44828,-4.52138 9.5166,-8.10661 14.33545,-12.14567 4.28325,-3.61609 7.31451,-8.51981 11.07563,-12.70725 3.00418,-5.40603 5.80811,-10.84089 8.89218,-16.20249 2.05934,-3.88977 3.35381,-9.06141 8.05644,-11.73873 3.78461,-3.98008 9.80986,-6.43015 12.87401,-10.21362 2.13339,-1.93267 3.2792,-1.22664 0.0759,4.79271"
       id="path3943"
       inkscape:connector-curvature="0"
       sodipodi:nodetypes="cccccccccccccccccccccccccccccccccccccccccccccccccccccccccccccccccccccccccccccccccccc" />
    <path
       style="fill:none;stroke:#ffffff;stroke-width:1.06279945px;stroke-linecap:butt;stroke-linejoin:miter;stroke-opacity:1"
       d="m 385,287.36218 c -2.28475,-6.51528 2.96677,-1.24408 4.44152,-3.08516 2.44047,-0.33477 6.97038,-3.42833 6.04283,-2.70156 0.15513,4.83678 -0.99401,3.97546 -3.00559,7.70459 0.24245,3.56694 -6.43299,5.93937 -5.51591,7.39405 -6.38956,2.2498 0.4161,0.90956 3.27933,-1.61648 3.37181,-2.39776 6.05767,-5.77236 9.74752,-7.70815 1.93044,-1.88247 4.5194,-2.582 5.979,-4.60454 1.72038,2.88085 -5.20616,7.14198 -7.48882,10.00406 -2.49518,1.22193 -5.57007,2.89062 -6.28368,5.43877 -3.4921,1.92058 -5.73192,3.7287 -8.84388,5.74461 4.8751,0.82936 7.81947,-4.79742 11.38314,-7.33567 3.73658,-2.14987 4.3001,-3.05022 8.22019,-5.02703 2.0785,-0.60948 6.36718,-5.17888 7.9744,-4.5524 -2.9456,1.8381 -3.84389,5.69441 -6.45911,7.27081 -1.86327,3.31357 -5.58501,5.48941 -7.05998,9.2748 -3.37605,2.71606 -4.80649,7.25325 -9.54063,7.86665 -3.84081,3.1009 -4.79163,2.65297 -7.08279,5.52023 1.76551,0.0533 5.6553,-4.63396 8.7503,-5.34524 0.0914,-2.63278 4.55246,-1.84774 5.19762,-4.23421 1.74139,-2.23894 2.27398,-4.73142 5.00199,-6.67907 1.77156,-2.03071 4.16697,-3.81888 5.45804,-6.03641 2.01283,-1.58598 4.80657,-4.52698 7.13871,-5.75356 2.33191,-1.5758 4.30231,-3.65324 7.11438,-5.38679 0.84531,-1.61545 7.00373,-5.1552 4.35861,-0.90336 -1.71609,1.83328 -2.77045,3.58873 -5.09581,4.77175 -1.92666,2.03823 -5.59623,2.90778 -7.78314,5.65655 -2.16227,2.55742 -5.07864,4.01065 -7.20619,6.63546 -2.85838,1.61023 -5.27507,4.86703 -7.44695,6.58413 -2.12672,1.51677 -6.59186,3.34413 -7.13891,6.89026 -0.27285,1.07106 -5.18651,8.00111 -2.58883,7.374 2.51,-3.73115 6.99321,-4.87229 8.93699,-8.5357 4.19718,-1.95997 6.37436,-5.9464 9.98981,-8.72634 3.00389,-2.66444 6.51122,-5.92746 8.73225,-8.97315 2.07212,-2.27667 4.67616,-4.32692 5.99106,-6.9259 2.82921,-2.22697 2.32622,-3.84378 6.01721,-4.96924 1.9501,-1.3577 4.85178,-7.0156 3.72706,-1.07147 -4.70386,-0.19775 -6.07929,7.50519 -10.09927,9.91148 -4.34473,2.53647 -7.86169,7.25269 -12.376,9.98102 -2.06106,3.5079 -7.11266,4.87584 -9.73547,8.46497 -5.06992,1.99592 -1.09127,2.86058 -5.99106,5.3868 -4.55086,2.863 -6.03269,6.18259 -8.26223,10.76317 -1.72633,2.36934 -1.58378,6.00161 1.52229,2.31907 3.55474,-1.76658 7.76386,-5.1154 8.85312,-5.70514 3.10718,-1.48437 5.71542,-3.86335 8.39947,-6.63663 3.23835,-2.91631 7.24561,-5.56061 10.08161,-8.4359 3.03792,-2.72251 5.66318,-7.16922 9.31884,-7.24059 1.55543,-3.63857 5.0086,-7.76666 7.53102,-11.99799 1.33894,-3.09241 2.92333,-4.56649 4.74763,-7.18724 3.88298,-6.12738 1.10899,0.58773 -1.75211,3.33952 -3.53318,4.48736 -9.06554,6.57299 -11.98211,11.54316 -3.43923,3.74558 -7.4561,7.23179 -10.49442,11.15237 -1.07969,3.08906 -4.74948,3.43647 -5.981,5.77757 -1.70042,1.48827 -8.23117,5.20976 -6.51443,5.83479 -3.05822,2.17506 -8.18995,6.86081 -9.81491,6.75358 -3.13437,3.19245 -6.45133,6.19395 -6.81981,10.14133 -3.29904,2.19565 -0.62406,4.74341 2.96688,3.20692 3.26449,-5.0524 6.51708,-3.31211 10.38518,-7.56558 4.69244,-2.61481 8.21206,-6.78391 12.79263,-9.52129 3.21291,-2.12744 5.13389,-6.10276 8.98658,-7.31066 3.79261,-3.33976 7.6053,-6.77472 11.23324,-10.00406 4.06535,-3.23521 6.29147,-8.03808 10.48435,-10.77361 3.39847,-3.89767 4.2546,-9.96973 8.98063,-11.99327 0.67638,-2.28481 5.37668,-6.42625 1.50372,-1.08897 -4.0394,3.12486 -7.20129,7.24018 -11.34203,10.69575 -5.33667,2.89069 -9.82875,7.12242 -14.38846,11.12737 -1.7491,1.62947 -4.86968,5.10105 -3.23449,4.47951 -3.22475,4.27825 -6.28625,7.90114 -10.48559,11.15818 -2.39157,2.65433 -5.45004,4.35785 -7.72901,7.1727 -2.24578,2.09837 -7.92297,6.09937 -8.02729,7.61338 -1.01789,1.61883 -6.6116,3.54534 -6.20148,6.23841 -2.1318,2.94259 -4.74732,4.18691 -5.99105,7.69542 -2.60086,-0.27868 -5.67353,3.88866 -0.7433,2.3553 6.40691,-1.43173 11.08089,-6.61098 16.2072,-10.30321 4.09663,-2.72225 6.13055,-4.19535 10.77187,-7.0296 2.40191,-3.15803 6.28936,-4.52252 8.74979,-7.89103 3.28761,-3.99668 6.78607,-6.4888 9.94737,-10.22181 1.18587,-1.48377 5.03802,-7.76696 5.10569,-5.55253 2.10345,-3.6088 6.21583,-8.32289 6.87643,-9.06879 2.02463,-3.86401 5.26614,-6.44559 7.48882,-10.00406 4.85869,-9.01277 13.75928,-12.4376 8.20007,-4.47723 -3.96288,5.36227 -11.53793,8.39181 -16.48877,12.90128 -1.56946,4.32445 -6.13685,6.39621 -8.93559,10.04498 -2.77101,4.7488 -7.48892,8.81763 -12.00188,11.89506 -4.221,3.13018 -7.45347,7.02174 -10.98742,10.95895 -3.14538,2.86999 -5.12218,6.54495 -6.96599,9.46681 -3.36964,3.62071 -5.18932,8.62931 -8.23771,13.08223 -2.93164,2.40649 -5.94811,9.68336 -5.51584,11.18321 3.12297,-4.26678 7.36649,-7.5623 10.75801,-11.95275 3.88108,-3.98999 7.88228,-7.87827 11.23324,-12.31269 4.95353,-4.07707 9.86656,-8.16681 14.25492,-12.66468 2.563,-3.47701 5.99653,-6.63668 9.53163,-9.10485 -2.10968,-0.24292 4.2218,-3.84843 5.44816,-5.9631 2.26599,-2.93037 5.74579,-4.38734 7.46052,-7.66636 2.32299,-1.50052 3.11758,-4.79914 5.24218,-5.3868 1.14765,-4.02706 5.765,-5.70416 7.48883,-9.23452 2.38902,-2.19992 3.71298,-5.75781 5.24217,-6.15634 1.2622,-2.81578 3.53484,-4.43065 2.5731,-2.66155 -5.12403,4.18062 -8.46297,10.08504 -13.80634,14.20469 -4.18888,5.92319 -10.58612,9.5518 -14.99179,15.4054 -4.73315,4.45136 -7.89103,10.23618 -12.71685,14.60678 -2.03135,3.83898 -5.82644,5.34807 -8.0015,8.67562 -2.74485,4.00489 -7.23787,5.21103 -10.4945,8.7916 -2.81643,3.03253 -5.38957,5.68068 -7.80393,8.6962 -0.53282,3.21279 -4.05653,4.27957 -5.90201,6.92695 -3.3222,3.79682 -5.69816,6.75534 -8.1242,11.31425 -2.28879,1.76009 -3.88434,4.39882 -6.10455,6.38524 5.79569,-2.53909 11.15957,-6.99227 15.52595,-12.03987 6.82583,-5.6599 12.6228,-12.49063 18.90417,-18.76371 3.2741,-3.81867 8.36377,-5.02682 12.53856,-7.56523 2.12152,-0.82156 8.17441,-6.28962 6.35071,-3.13613 3.94774,-2.23643 7.16269,-5.75938 9.95168,-9.2918 2.97231,-4.64157 7.21265,-7.80986 10.62808,-12.05898 2.96969,-3.79648 5.8024,-7.51102 7.72901,-11.78997 2.64262,-3.24783 5.46776,-7.44388 8.98659,-10.77361 1.25557,-2.60291 2.4523,-1.01228 2.99552,-4.61726 2.85461,-0.93143 6.05279,-5.89384 1.49777,-1.53909 -2.79784,2.42184 -4.67598,4.7821 -7.27692,7.47768 -1.98639,2.83309 -8.45795,5.96164 -6.89933,7.0049 -4.04867,3.10901 -7.39325,6.63454 -10.83365,10.44778 -3.17966,3.27082 -5.15154,7.46985 -8.71163,10.44857 -4.86695,5.79578 -9.32615,12.28423 -14.95582,16.95002 -3.10998,4.4303 -6.61829,8.52142 -10.48435,12.31269 -3.00032,4.9354 -6.67423,8.76267 -9.98981,13.34359 -3.35828,3.86518 -6.02899,7.23858 -9.48113,10.51225 -2.80079,3.95119 -5.94342,6.33364 -9.73547,9.23452 -2.91269,1.35812 -5.20156,6.71506 -6.07138,6.58431 -1.29426,2.16764 4.96375,-3.01369 6.80264,-4.30539 6.53677,-3.41671 12.62714,-7.6329 18.35343,-12.3004 4.07407,-4.13305 9.37546,-5.92812 13.60164,-7.5389 8.18446,-8.13139 16.14988,-16.52614 24.22872,-24.7645 1.62971,-4.38887 4.25605,-8.05149 7.77146,-11.06404 3.48036,-3.78426 7.44693,-7.2084 10.57616,-11.25272 2.19433,-2.9429 5.29376,-5.85517 7.1345,-8.45296 1.85703,-3.16308 4.15413,-6.00675 5.22206,-8.47699 4.01735,-3.40321 6.44527,-9.28078 8.98658,-13.85177 1.61591,-2.73194 4.22867,-8.32581 5.65865,-8.54752 1.36646,-1.46848 3.55991,-5.04886 1.0813,-0.68701 -2.81409,3.20907 -5.20973,7.11199 -8.49205,10.26542 -3.25298,3.51053 -6.98772,6.62083 -9.55559,10.70067 -3.60417,2.29474 -5.6768,6.22277 -8.91213,9.0461 -3.38397,4.28559 -7.41599,7.69422 -11.24738,11.55769 -6.90918,7.19047 -14.01329,14.20576 -20.77934,21.52376 -2.72578,5.01234 -8.9668,5.63159 -11.00911,10.04155 -4.87469,3.49681 -8.18988,8.22199 -11.63258,13.05366 -2.96235,2.89449 -0.90337,1.11243 -2.70014,4.74264 -1.32375,2.28312 -3.64341,5.5418 -3.01835,8.55699 -0.11162,2.93906 -3.67323,11.38265 -5.20454,10.28414 -2.10016,5.16502 -1.63591,4.76081 -4.821,8.57633 -4.49312,4.30698 9.06622,-5.70904 11.62195,-5.42082 5.79472,-5.22478 2.07892,-0.76485 7.90556,-5.91677 3.47469,-3.98555 7.64374,-7.40759 10.80572,-11.60113 4.00036,-3.77566 8.5454,-7.35449 12.71596,-11.17969 1.86759,-3.7355 7.21607,-6.08423 9.40423,-10.36892 2.88436,-4.37987 6.78792,-7.38417 8.97243,-12.29815 3.66593,-3.98606 6.31373,-8.77958 10.48435,-12.31269 2.61911,-4.54775 5.48836,-8.45047 8.98659,-12.3127 1.11796,-2.62946 -1.58386,-0.90248 1.49778,-3.84772 2.90607,-3.80478 4.74222,-8.38886 7.48881,-12.31269 1.93164,-3.4442 4.5653,-6.35754 6.73994,-10.00406 2.28363,-3.79151 3.97222,-5.18252 7.48883,-8.46497 -1.0205,5.10857 -6.2758,8.30159 -8.83628,13.23531 -2.72342,4.31255 -6.16456,8.05236 -9.47494,11.90064 -5.54369,5.28716 -8.62956,12.62381 -12.89477,18.92625 -1.41241,5.6474 -5.7792,9.72445 -7.73589,15.19263 -3.43775,4.75294 -5.74295,10.22041 -8.88601,15.15843 -2.6502,4.64067 -7.17418,7.79063 -10.62071,11.79249 -1.59434,3.3482 -7.87554,8.01676 -10.68292,12.26125 -3.07441,4.3093 -3.27605,9.91731 -7.25448,13.11677 -6.56421,8.33981 2.60547,1.06614 10.91413,-2.54035 -2.49736,0.78845 5.8112,-4.97959 7.05551,-6.69837 3.72054,-3.44125 7.96474,-5.08513 10.48789,-8.46078 4.31092,-3.61811 7.52457,-9.18125 10.58185,-13.9326 3.05024,-4.88828 7.20159,-9.36092 9.59965,-14.55506 2.67368,-5.04019 6.56422,-9.73253 9.77379,-14.60676 3.26072,-4.01285 5.55509,-8.64136 8.98659,-11.54315 1.38141,-1.91705 2.01884,-4.79821 3.74441,-6.15635 1.0383,-2.42341 4.95298,-5.83137 4.09661,-6.61658 -5.0794,2.40834 -5.19847,11.16656 -10.85,11.87562 0.71149,5.30659 -5.23873,8.04347 -7.32506,12.59354 -3.31524,5.2227 -6.83348,10.29903 -11.38355,14.46824 -1.4831,3.93159 -4.31589,6.67035 -5.99105,10.7736 -3.82513,3.35931 -5.8003,8.27919 -9.73548,11.54316 -2.00747,4.52405 -5.19102,7.52999 -7.99751,12.06587 -1.16204,1.01923 -5.89469,9.58756 -0.61781,4.47372 5.59072,-2.86571 10.1572,-7.57915 15.36818,-11.13566 5.59361,-4.00398 9.65293,-9.92775 14.92026,-14.32762 2.76582,-1.88564 7.01068,-2.32359 8.74932,-5.24837 1.07898,-5.01072 5.99485,-6.35902 7.77055,-11.22287 3.1842,-2.5584 6.74515,-6.95434 8.96227,-10.40685 1.57191,-0.64529 -1.81492,3.13376 -1.83953,1.95382 -3.26479,4.40949 -6.17387,9.22267 -10.13241,13.08483 -3.81917,3.70103 -6.85331,8.1279 -10.94416,11.45996 -2.15899,5.21108 -4.82315,10.18012 -8.15319,14.68273 -1.90368,4.39141 -6.1894,7.0278 -9.19071,10.62124 -3.2141,3.04562 -5.92427,6.91061 -7.64414,9.39413 -1.12022,2.13501 6.45473,-3.16752 8.22906,-4.63028 6.43826,-4.33756 12.89393,-8.65308 18.7307,-13.83876 4.18719,-2.70664 9.02844,-4.47577 11.98212,-7.69544 1.81013,-2.89767 5.82474,-5.93789 7.79181,-9.37425 -0.78951,4.05699 -5.52688,9.5464 -8.54592,13.60236 -3.47113,3.84287 -6.38955,8.08964 -10.47912,11.16276 -1.95246,3.81168 -3.01694,0.92928 -5.03704,5.99814 1.52297,-2.14123 -2.59352,1.65773 0.099,-1.47106 4.70091,-3.29337 8.99522,-7.80422 13.44199,-11.73252 2.36081,-1.95765 8.29918,-6.82304 4.61099,-0.4831 -2.39618,4.37308 -6.16151,9.01436 -8.36118,12.53443 -0.0491,2.97813 -3.48418,5.50964 0.48844,3.61908 2.92693,-2.30252 5.6675,-4.92844 8.2377,-7.69543 0.0175,3.33469 -2.84046,6.28602 -3.74441,9.23452 -2.36555,3.70033 3.65502,0.16549 3.77432,-1.15564 1.12382,1.05803 1.88821,-2.86553 1.46786,1.09503 l 0,0.0607"
       id="path3939"
       inkscape:connector-curvature="0"
       sodipodi:nodetypes="ccccccccccccccccccccccccccccccccccccccccccccccccccccccccccccccccccccccccccccccccccccccccccccccccccccccccccccccccccccccccccccccccccccccccccccccccccccccccccccccccccccccccccccccccccccccccccccccccccccccccccccccccccccc" />
    <rect
       style="fill:#0066ff;stroke:#ffffff;stroke-width:2;stroke-linecap:round;stroke-linejoin:round;stroke-miterlimit:4;stroke-dasharray:none"
       id="rect3917"
       width="20"
       height="15"
       x="400"
       y="297.36218" />
    <rect
       y="297.36218"
       x="440"
       height="15"
       width="20"
       id="rect3923"
       style="fill:#0066ff;stroke:#ffffff;stroke-width:2;stroke-linecap:round;stroke-linejoin:round;stroke-miterlimit:4;stroke-dasharray:none" />
    <rect
       y="327.36218"
       x="400"
       height="15"
       width="20"
       id="rect3919"
       style="fill:#0066ff;stroke:#ffffff;stroke-width:2;stroke-linecap:round;stroke-linejoin:round;stroke-miterlimit:4;stroke-dasharray:none" />
    <path
       style="fill:none;stroke:#ffffff;stroke-width:2;stroke-linecap:round;stroke-linejoin:miter;stroke-opacity:1;stroke-miterlimit:4;stroke-dasharray:none"
       d="m 260,227.36218 0,190"
       id="path3803"
       inkscape:connector-curvature="0" />
    <path
       style="fill:none;stroke:#ffffff;stroke-width:2;stroke-linecap:round;stroke-linejoin:miter;stroke-miterlimit:4;stroke-opacity:1;stroke-dasharray:none"
       d="m 250,257.36218 270,0"
       id="path3805"
       inkscape:connector-curvature="0" />
    <path
       style="fill:none;stroke:#ffffff;stroke-width:2;stroke-linecap:round;stroke-linejoin:miter;stroke-opacity:1;stroke-miterlimit:4;stroke-dasharray:none"
       d="m 510,217.36218 0,205"
       id="path3807"
       inkscape:connector-curvature="0" />
    <path
       style="color:#000000;fill:none;stroke:#ffffff;stroke-width:2;stroke-linecap:round;stroke-linejoin:miter;stroke-miterlimit:4;stroke-opacity:1;stroke-dasharray:none;stroke-dashoffset:0;marker:none;visibility:visible;display:inline;overflow:visible;enable-background:accumulate"
       d="m 360,277.36218 0,30"
       id="path3821"
       inkscape:connector-curvature="0" />
    <path
       style="color:#000000;fill:none;stroke:#ffffff;stroke-width:2;stroke-linecap:round;stroke-linejoin:miter;stroke-miterlimit:4;stroke-opacity:1;stroke-dasharray:none;stroke-dashoffset:0;marker:none;visibility:visible;display:inline;overflow:visible;enable-background:accumulate"
       d="m 280,277.36218 0,30"
       id="path3823"
       inkscape:connector-curvature="0" />
    <path
       style="color:#000000;fill:none;stroke:#ffffff;stroke-width:2;stroke-linecap:round;stroke-linejoin:miter;stroke-miterlimit:4;stroke-opacity:1;stroke-dasharray:none;stroke-dashoffset:0;marker:none;visibility:visible;display:inline;overflow:visible;enable-background:accumulate"
       d="m 270,282.36218 100,0"
       id="path3825"
       inkscape:connector-curvature="0" />
    <path
       style="color:#000000;fill:none;stroke:#ffffff;stroke-width:2;stroke-linecap:round;stroke-linejoin:miter;stroke-miterlimit:4;stroke-opacity:1;stroke-dasharray:none;stroke-dashoffset:0;marker:none;visibility:visible;display:inline;overflow:visible;enable-background:accumulate"
       d="m 365,302.36218 -95,0"
       id="path3827"
       inkscape:connector-curvature="0" />
    <path
       style="color:#000000;fill:none;stroke:#ffffff;stroke-width:2;stroke-linecap:round;stroke-linejoin:miter;stroke-miterlimit:4;stroke-opacity:1;stroke-dasharray:none;stroke-dashoffset:0;marker:none;visibility:visible;display:inline;overflow:visible;enable-background:accumulate"
       d="m 265,322.36218 100,0"
       id="path3829"
       inkscape:connector-curvature="0" />
    <path
       style="color:#000000;fill:none;stroke:#ffffff;stroke-width:2;stroke-linecap:round;stroke-linejoin:miter;stroke-miterlimit:4;stroke-opacity:1;stroke-dasharray:none;stroke-dashoffset:0;marker:none;visibility:visible;display:inline;overflow:visible;enable-background:accumulate"
       d="m 360,317.36218 0,35"
       id="path3831"
       inkscape:connector-curvature="0" />
    <path
       style="color:#000000;fill:none;stroke:#ffffff;stroke-width:2;stroke-linecap:round;stroke-linejoin:miter;stroke-miterlimit:4;stroke-opacity:1;stroke-dasharray:none;stroke-dashoffset:0;marker:none;visibility:visible;display:inline;overflow:visible;enable-background:accumulate"
       d="m 275,342.36218 95,0"
       id="path3833"
       inkscape:connector-curvature="0" />
    <path
       style="color:#000000;fill:none;stroke:#ffffff;stroke-width:2;stroke-linecap:round;stroke-linejoin:miter;stroke-miterlimit:4;stroke-opacity:1;stroke-dasharray:none;stroke-dashoffset:0;marker:none;visibility:visible;display:inline;overflow:visible;enable-background:accumulate"
       d="m 280,317.36218 0,30"
       id="path3835"
       inkscape:connector-curvature="0" />
    <path
       style="color:#000000;fill:none;stroke:#ffffff;stroke-width:2;stroke-linecap:round;stroke-linejoin:miter;stroke-miterlimit:4;stroke-opacity:1;stroke-dasharray:none;stroke-dashoffset:0;marker:none;visibility:visible;display:inline;overflow:visible;enable-background:accumulate"
       d="m 255,412.36218 260,0"
       id="path3837"
       inkscape:connector-curvature="0" />
    <path
       style="color:#000000;fill:none;stroke:#ffffff;stroke-width:2;stroke-linecap:round;stroke-linejoin:miter;stroke-miterlimit:4;stroke-opacity:1;stroke-dasharray:none;stroke-dashoffset:0;marker:none;visibility:visible;display:inline;overflow:visible;enable-background:accumulate"
       d="m 385,282.36218 0,115"
       id="path3839"
       inkscape:connector-curvature="0" />
    <path
       style="color:#000000;fill:none;stroke:#ffffff;stroke-width:2;stroke-linecap:round;stroke-linejoin:miter;stroke-miterlimit:4;stroke-opacity:1;stroke-dasharray:none;stroke-dashoffset:0;marker:none;visibility:visible;display:inline;overflow:visible;enable-background:accumulate"
       d="m 380,392.36218 115,0"
       id="path3841"
       inkscape:connector-curvature="0" />
    <path
       style="color:#000000;fill:none;stroke:#ffffff;stroke-width:2;stroke-linecap:round;stroke-linejoin:miter;stroke-miterlimit:4;stroke-opacity:1;stroke-dasharray:none;stroke-dashoffset:0;marker:none;visibility:visible;display:inline;overflow:visible;enable-background:accumulate"
       d="m 490,277.36218 0,125"
       id="path3843"
       inkscape:connector-curvature="0" />
    <path
       style="color:#000000;fill:none;stroke:#ffffff;stroke-width:2;stroke-linecap:round;stroke-linejoin:miter;stroke-miterlimit:4;stroke-opacity:1;stroke-dasharray:none;stroke-dashoffset:0;marker:none;visibility:visible;display:inline;overflow:visible;enable-background:accumulate"
       d="m 380,282.36218 115,0"
       id="path3845"
       inkscape:connector-curvature="0" />
    <path
       style="color:#000000;fill:none;stroke:#ffffff;stroke-width:2;stroke-linecap:round;stroke-linejoin:miter;stroke-miterlimit:4;stroke-opacity:1;stroke-dasharray:none;stroke-dashoffset:0;marker:none;visibility:visible;display:inline;overflow:visible;enable-background:accumulate"
       d="m 255,232.36218 260,0"
       id="path3847"
       inkscape:connector-curvature="0" />
    <path
       style="fill:none;stroke:#ffffff;stroke-width:1;stroke-linecap:butt;stroke-linejoin:miter;stroke-miterlimit:4;stroke-opacity:1;stroke-dasharray:none"
       d="m 280,292.36218 c 0.88258,-1.88992 0.81959,-3.71408 1.47483,-5.46783 0.5931,-1.00996 0.78507,-1.95843 1.4091,-3.03046 0.65472,-1.3604 1.61343,-1.9625 1.0248,0.12627 -0.49774,1.91589 -0.93228,3.96622 -1.53719,5.93464 -0.39264,1.22263 -0.59509,2.80407 -1.4091,3.66181 0.009,0.70865 -1.08923,3.97061 -0.38431,3.03045 0.47026,-1.46818 1.77053,-2.72571 2.562,-4.04061 0.55724,-1.35837 1.33237,-2.70036 2.17771,-3.91434 0.34325,-1.43669 1.68871,-2.58564 2.31408,-3.65588 0.44962,-1.04927 1.2158,-2.22201 1.52891,-3.16265 0.57129,1.23922 -0.57224,3.93951 -1.0248,5.80838 -0.9402,1.72719 -1.01707,3.611 -1.60125,5.3033 -0.53093,1.68371 -1.52685,3.17474 -1.85744,4.79823 -0.16089,1.4949 -1.77583,3.62845 -1.79341,4.41941 1.86374,-1.68424 2.81296,-4.21902 4.92754,-5.59772 1.47305,-1.57855 2.44401,-3.45132 3.01466,-5.51395 0.65799,-1.24119 1.0491,-2.19621 1.4091,-3.66181 0.26098,-1.16172 0.89787,-1.97677 1.281,-2.90419 0.26094,-1.01625 0.43816,-1.94026 1.1529,-2.65165 1.38,-1.0291 0.26898,2.70468 -0.3843,3.40927 -0.7509,2.18988 -1.81543,4.39061 -2.0496,6.43972 -0.42461,1.66885 -0.77078,3.86033 -1.15291,5.05076 -0.61196,1.31201 -0.80933,2.61757 -1.15289,4.04061 -1.12903,3.35968 0.97003,-1.77506 1.5415,-2.90238 1,-2.67131 2.3227,-5.21464 3.17884,-7.9244 0.57702,-1.55735 1.33323,-3.3766 2.06895,-4.45177 0.47502,-1.00064 1.0907,-1.84214 1.4091,-2.90419 0.65054,0.30223 0.61806,2.5869 0.3843,3.6618 -0.0565,1.93757 -1.2299,3.52048 -1.6653,5.55584 -0.32497,1.38425 -0.17369,3.31093 -0.7686,4.41942 -0.54224,1.2793 -0.79326,3.37717 -1.14686,4.35627 -0.50774,1.65567 -0.23263,2.80762 0.76256,0.56822 1.92341,-1.6727 2.71785,-3.83518 3.70727,-6.108 0.2493,-1.75867 1.0267,-2.99473 1.54482,-4.4986 0.96336,-1.86631 1.38272,-3.88902 2.4339,-5.68211 0.45796,-1.21082 1.07423,-2.51948 1.5372,-4.04061 0.3832,-1.02576 0.78823,-2.34901 0.63461,-0.42734 -0.50766,2.76081 -1.13577,5.69729 -2.03685,8.44745 -0.71761,2.43495 -2.02369,4.78938 -1.80026,7.38472 -0.79333,2.44948 -1.64803,5.18928 -2.17769,7.82868 -0.36049,0.4976 -0.41808,3.79631 0,2.39911 1.79419,-2.42016 2.75565,-5.37755 3.84299,-8.20749 0.37611,-1.80099 1.08306,-3.66494 1.79341,-5.3033 0.48153,-1.96765 0.98823,-4.14439 1.9215,-6.06091 0.87189,-1.55256 1.90147,-2.87176 2.56199,-4.54569 1.07719,-2.55436 0.94151,1.82341 0.12818,2.65165 -1.27769,2.59967 -1.75858,5.14778 -2.43391,7.44988 -0.49371,2.48878 -1.71488,4.78309 -1.53719,7.3236 0.0603,1.19803 -0.57794,2.74168 -0.12818,3.6618 1.07145,-1.5435 2.67147,-4.03812 3.06304,-4.9911 1.10957,-1.41124 1.91419,-4.66059 2.31716,-7.00446 0.48379,-1.9224 0.65174,-3.26554 1.40911,-5.05076 0.48193,-1.32413 0.90697,-2.09495 1.82108,-3.37827 0.23406,-1.39399 2.30374,-3.89932 1.00429,-0.80332 -0.73961,2.8381 -1.11129,4.7436 -2.12457,7.52687 -0.54896,2.5728 -1.05133,5.0662 -1.65293,7.56523 -0.23367,1.11 -0.85538,3.38588 -0.84128,4.9667 0.098,1.57153 -1.02338,4.52928 0.51241,1.54792 1.72084,-2.09089 1.7778,-4.49093 2.89465,-6.87988 0.70155,-1.63999 1.56681,-4.16377 2.10123,-6.2521 0.76142,-1.94631 1.94077,-3.90654 2.6901,-5.68211 0.70539,-1.70801 1.77518,-3.73064 2.56199,-5.05076 1.27119,-1.75072 -0.5592,3.01709 -0.64103,3.81087 -1.26615,2.59211 -2.06843,5.40707 -2.82702,8.13997 -0.378,2.04677 -0.3424,4.56689 -1.01544,6.2319 -0.009,1.81921 -1.11484,3.48983 -1.0248,5.3033 1.00303,-1.91509 2.48102,-3.41687 2.9463,-4.92449 1.06025,-2.1079 1.74736,-4.39012 2.36987,-6.81853 0.88103,-2.04317 0.75429,-4.4007 1.85742,-6.18718 0.10542,-1.30067 0.76601,-2.9191 1.66532,-3.53554 0.88009,0.31343 0.19555,2.79663 0,3.53554 -0.76788,2.75352 -2.31917,5.49814 -2.43391,8.46002 -0.0107,2.21109 -0.48908,4.25904 -0.7686,6.43973 0.38485,0.76626 -1.08566,3.97749 -0.12818,2.52538 1.18822,-1.97723 3.68374,-2.93734 4.28893,-5.17802 1.2203,-2.61485 2.17216,-5.34188 2.75657,-8.08023 0.19982,-1.86646 1.08537,-3.08949 1.53721,-4.67196 0.6653,-1.86681 1.66132,-2.6944 1.79339,-4.54569 0.6658,-1.70483 0.96914,-1.91556 0.25788,0.25303 -0.59308,1.54228 -0.25859,2.57814 -1.15457,4.92401 -0.45709,3.06455 -1.37165,6.03212 -2.14114,8.99521 -0.3551,1.61487 -0.28011,3.59967 -0.42086,5.39946 -0.28951,1.35568 -0.34935,3.37793 -0.7686,3.6618 0.70565,-0.48384 2.15387,-3.4512 2.88023,-4.91103 1.53383,-2.0946 1.20685,-4.33701 2.24375,-6.32691 0.30331,-1.85973 1.07455,-3.67697 1.79341,-5.30331 0.78953,-1.31756 1.24725,-2.95287 1.92149,-4.29314 0.62269,-0.40614 1.05364,-2.127 1.28271,-3.04076 0.87276,-1.9086 -0.38146,2.82041 -0.3602,2.14352 -0.74151,3.10062 -1.11564,6.17492 -2.33161,9.10473 -0.68679,2.70023 -0.53811,5.65208 -1.40908,8.33375 -0.3237,1.50694 -0.61869,3.32943 -0.6405,4.79823 0.63863,-0.67729 2.31074,-3.21178 2.56199,-4.79823 1.43479,-2.64227 1.8847,-4.97704 2.4339,-7.44987 0.40537,-2.74492 0.87353,-4.35466 1.40909,-6.9448 0.0418,-1.66822 1.15934,-3.11083 1.53721,-4.79822 0.42875,-0.44211 1.04194,-2.16949 1.15289,-1.6742 0.0391,2.31544 -1.03984,4.07165 -1.4091,6.34615 -0.0533,2.14964 -0.81535,4.64594 -0.76859,7.00567 0.14951,2.53199 -0.97863,4.85515 -0.76861,7.38901 -0.82433,1.70025 -0.45927,3.75431 -0.89669,5.55583 -0.24009,2.60332 0.66672,-1.73954 1.64754,-2.12146 1.04832,-2.14965 1.55001,-3.53716 2.25952,-5.95975 1.03238,-2.49473 0.77465,-5.33319 2.11364,-7.70242 0.97543,-1.94347 1.44553,-4.13872 2.29749,-6.06683 0.55297,-0.61885 0.69346,-1.55471 1.03309,-2.3932 -0.38734,1.75899 -0.70905,3.06062 -1.46688,4.97334 -0.0965,2.87557 -1.05646,5.54728 -1.74409,8.41005 -0.34994,1.43249 -0.45115,3.42533 -0.64016,5.24286 0.0318,1.71038 -0.26219,3.40896 -0.50425,4.98607 -0.89774,1.32254 1.46242,-3.16955 1.40908,-4.04061 0.70827,-2.72074 1.52232,-5.36185 1.6594,-8.15135 0.41502,-2.75397 1.59609,-5.28695 2.42379,-7.84672 0.44734,-0.95439 1.55989,-5.39325 1.68132,-3.06856 0.6171,2.0521 0.31141,4.28573 0.3843,6.43972 -0.30679,1.89419 -0.31401,3.89657 -0.6405,5.80838 0.027,2.12838 -0.045,4.22722 -0.6405,6.18718 -0.35792,1.91684 -0.57466,3.59723 -1.1529,5.42957 -0.26559,1.36192 1.73817,-1.36218 1.7934,-2.0203 1.33517,-2.80698 2.29348,-5.88402 3.0744,-8.83884 0.89816,-2.01446 0.86082,-4.77747 1.9215,-6.9448 0.94203,-1.14438 1.21227,-2.23749 2.17769,-3.40926 1.06587,-2.9534 -0.19196,1.62784 -0.6405,2.65165 -0.43491,2.82073 -1.7264,5.56969 -1.79339,8.46003 0.09,1.52444 -0.0587,2.99355 -0.3843,4.41942 -0.0418,2.13347 -0.84501,4.10996 -0.7686,6.43972 -0.23602,1.34977 -0.59215,2.62292 0.25621,0.50507 1.0373,-1.31457 2.38677,-3.88214 2.69008,-5.93464 0.3063,-1.64414 1.27179,-2.68871 1.6653,-4.16688 0.28736,-1.70718 1.22937,-2.99731 1.6653,-4.54569 0.59799,-1.38627 -0.12711,2.80911 -0.38428,3.40927 -0.49689,1.88471 -0.5269,3.2787 -1.40911,4.92449 0.0636,0.54923 -1.17609,2.88549 -0.25621,1.6415 0.8046,-1.15088 1.40528,-1.69223 1.65698,-2.78384 0.26631,-0.6092 0.6936,-1.11815 1.55251,-1.39554"
       id="path3910"
       inkscape:connector-curvature="0" />
    <path
       inkscape:connector-curvature="0"
       id="path3913"
       d="m 362.04018,331.51164 c -0.88258,1.88992 -0.81959,3.71408 -1.47483,5.46783 -0.5931,1.00996 -0.78507,1.95843 -1.4091,3.03046 -0.65472,1.3604 -1.61343,1.9625 -1.0248,-0.12627 0.49774,-1.91589 0.93228,-3.96622 1.53719,-5.93464 0.39264,-1.22263 0.59509,-2.80407 1.4091,-3.66181 -0.009,-0.70865 1.08923,-3.97061 0.38431,-3.03045 -0.47026,1.46818 -1.77053,2.72571 -2.562,4.04061 -0.55724,1.35837 -1.33237,2.70036 -2.17771,3.91434 -0.34325,1.43669 -1.68871,2.58564 -2.31408,3.65588 -0.44962,1.04927 -1.2158,2.22201 -1.52891,3.16265 -0.57129,-1.23922 0.57224,-3.93951 1.0248,-5.80838 0.9402,-1.72719 1.01707,-3.611 1.60125,-5.3033 0.53093,-1.68371 1.52685,-3.17474 1.85744,-4.79823 0.16089,-1.4949 1.77583,-3.62845 1.79341,-4.41941 -1.86374,1.68424 -2.81296,4.21902 -4.92754,5.59772 -1.47305,1.57855 -2.44401,3.45132 -3.01466,5.51395 -0.65799,1.24119 -1.0491,2.19621 -1.4091,3.66181 -0.26098,1.16172 -0.89787,1.97677 -1.281,2.90419 -0.26094,1.01625 -0.43816,1.94026 -1.1529,2.65165 -1.38,1.0291 -0.26898,-2.70468 0.3843,-3.40927 0.7509,-2.18988 1.81543,-4.39061 2.0496,-6.43972 0.42461,-1.66885 0.77078,-3.86033 1.15291,-5.05076 0.61196,-1.31201 0.80933,-2.61757 1.15289,-4.04061 1.12903,-3.35968 -0.97003,1.77506 -1.5415,2.90238 -1,2.67131 -2.3227,5.21464 -3.17884,7.9244 -0.57702,1.55735 -1.33323,3.3766 -2.06895,4.45177 -0.47502,1.00064 -1.0907,1.84214 -1.4091,2.90419 -0.65054,-0.30223 -0.61806,-2.5869 -0.3843,-3.6618 0.0565,-1.93757 1.2299,-3.52048 1.6653,-5.55584 0.32497,-1.38425 0.17369,-3.31093 0.7686,-4.41942 0.54224,-1.2793 0.79326,-3.37717 1.14686,-4.35627 0.50774,-1.65567 0.23263,-2.80762 -0.76256,-0.56822 -1.92341,1.6727 -2.71785,3.83518 -3.70727,6.108 -0.2493,1.75867 -1.0267,2.99473 -1.54482,4.4986 -0.96336,1.86631 -1.38272,3.88902 -2.4339,5.68211 -0.45796,1.21082 -1.07423,2.51948 -1.5372,4.04061 -0.3832,1.02576 -0.78823,2.34901 -0.63461,0.42734 0.50766,-2.76081 1.13577,-5.69729 2.03685,-8.44745 0.71761,-2.43495 2.02369,-4.78938 1.80026,-7.38472 0.79333,-2.44948 1.64803,-5.18928 2.17769,-7.82868 0.36049,-0.4976 0.41808,-3.79631 0,-2.39911 -1.79419,2.42016 -2.75565,5.37755 -3.84299,8.20749 -0.37611,1.80099 -1.08306,3.66494 -1.79341,5.3033 -0.48153,1.96765 -0.98823,4.14439 -1.9215,6.06091 -0.87189,1.55256 -1.90147,2.87176 -2.56199,4.54569 -1.07719,2.55436 -0.94151,-1.82341 -0.12818,-2.65165 1.27769,-2.59967 1.75858,-5.14778 2.43391,-7.44988 0.49371,-2.48878 1.71488,-4.78309 1.53719,-7.3236 -0.0603,-1.19803 0.57794,-2.74168 0.12818,-3.6618 -1.07145,1.5435 -2.67147,4.03812 -3.06304,4.9911 -1.10957,1.41124 -1.91419,4.66059 -2.31716,7.00446 -0.48379,1.9224 -0.65174,3.26554 -1.40911,5.05076 -0.48193,1.32413 -0.90697,2.09495 -1.82108,3.37827 -0.23406,1.39399 -2.30374,3.89932 -1.00429,0.80332 0.73961,-2.8381 1.11129,-4.7436 2.12457,-7.52687 0.54896,-2.5728 1.05133,-5.0662 1.65293,-7.56523 0.23367,-1.11 0.85538,-3.38588 0.84128,-4.9667 -0.098,-1.57153 1.02338,-4.52928 -0.51241,-1.54792 -1.72084,2.09089 -1.7778,4.49093 -2.89465,6.87988 -0.70155,1.63999 -1.56681,4.16377 -2.10123,6.2521 -0.76142,1.94631 -1.94077,3.90654 -2.6901,5.68211 -0.70539,1.70801 -1.77518,3.73064 -2.56199,5.05076 -1.27119,1.75072 0.5592,-3.01709 0.64103,-3.81087 1.26615,-2.59211 2.06843,-5.40707 2.82702,-8.13997 0.378,-2.04677 0.3424,-4.56689 1.01544,-6.2319 0.009,-1.81921 1.11484,-3.48983 1.0248,-5.3033 -1.00303,1.91509 -2.48102,3.41687 -2.9463,4.92449 -1.06025,2.1079 -1.74736,4.39012 -2.36987,6.81853 -0.88103,2.04317 -0.75429,4.4007 -1.85742,6.18718 -0.10542,1.30067 -0.76601,2.9191 -1.66532,3.53554 -0.88009,-0.31343 -0.19555,-2.79663 0,-3.53554 0.76788,-2.75352 2.31917,-5.49814 2.43391,-8.46002 0.0107,-2.21109 0.48908,-4.25904 0.7686,-6.43973 -0.38485,-0.76626 1.08566,-3.97749 0.12818,-2.52538 -1.18822,1.97723 -3.68374,2.93734 -4.28893,5.17802 -1.2203,2.61485 -2.17216,5.34188 -2.75657,8.08023 -0.19982,1.86646 -1.08537,3.08949 -1.53721,4.67196 -0.6653,1.86681 -1.66132,2.6944 -1.79339,4.54569 -0.6658,1.70483 -0.96914,1.91556 -0.25788,-0.25303 0.59308,-1.54228 0.25859,-2.57814 1.15457,-4.92401 0.45709,-3.06455 1.37165,-6.03212 2.14114,-8.99521 0.3551,-1.61487 0.28011,-3.59967 0.42086,-5.39946 0.28951,-1.35568 0.34935,-3.37793 0.7686,-3.6618 -0.70565,0.48384 -2.15387,3.4512 -2.88023,4.91103 -1.53383,2.0946 -1.20685,4.33701 -2.24375,6.32691 -0.30331,1.85973 -1.07455,3.67697 -1.79341,5.30331 -0.78953,1.31756 -1.24725,2.95287 -1.92149,4.29314 -0.62269,0.40614 -1.05364,2.127 -1.28271,3.04076 -0.87276,1.9086 0.38146,-2.82041 0.3602,-2.14352 0.74151,-3.10062 1.11564,-6.17492 2.33161,-9.10473 0.68679,-2.70023 0.53811,-5.65208 1.40908,-8.33375 0.3237,-1.50694 0.61869,-3.32943 0.6405,-4.79823 -0.63863,0.67729 -2.31074,3.21178 -2.56199,4.79823 -1.43479,2.64227 -1.8847,4.97704 -2.4339,7.44987 -0.40537,2.74492 -0.87353,4.35466 -1.40909,6.9448 -0.0418,1.66822 -1.15934,3.11083 -1.53721,4.79822 -0.42875,0.44211 -1.04194,2.16949 -1.15289,1.6742 -0.0391,-2.31544 1.03984,-4.07165 1.4091,-6.34615 0.0533,-2.14964 0.81535,-4.64594 0.76859,-7.00567 -0.14951,-2.53199 0.97863,-4.85515 0.76861,-7.38901 0.82433,-1.70025 0.45927,-3.75431 0.89669,-5.55583 0.24009,-2.60332 -0.66672,1.73954 -1.64754,2.12146 -1.04832,2.14965 -1.55001,3.53716 -2.25952,5.95975 -1.03238,2.49473 -0.77465,5.33319 -2.11364,7.70242 -0.97543,1.94347 -1.44553,4.13872 -2.29749,6.06683 -0.55297,0.61885 -0.69346,1.55471 -1.03309,2.3932 0.38734,-1.75899 0.70905,-3.06062 1.46688,-4.97334 0.0965,-2.87557 1.05646,-5.54728 1.74409,-8.41005 0.34994,-1.43249 0.45115,-3.42533 0.64016,-5.24286 -0.0318,-1.71038 0.26219,-3.40896 0.50425,-4.98607 0.89774,-1.32254 -1.46242,3.16955 -1.40908,4.04061 -0.70827,2.72074 -1.52232,5.36185 -1.6594,8.15135 -0.41502,2.75397 -1.59609,5.28695 -2.42379,7.84672 -0.44734,0.95439 -1.55989,5.39325 -1.68132,3.06856 -0.6171,-2.0521 -0.31141,-4.28573 -0.3843,-6.43972 0.30679,-1.89419 0.31401,-3.89657 0.6405,-5.80838 -0.027,-2.12838 0.045,-4.22722 0.6405,-6.18718 0.35792,-1.91684 0.57466,-3.59723 1.1529,-5.42957 0.26559,-1.36192 -1.73817,1.36218 -1.7934,2.0203 -1.33517,2.80698 -2.29348,5.88402 -3.0744,8.83884 -0.89816,2.01446 -0.86082,4.77747 -1.9215,6.9448 -0.94203,1.14438 -1.21227,2.23749 -2.17769,3.40926 -1.06587,2.9534 0.19196,-1.62784 0.6405,-2.65165 0.43491,-2.82073 1.7264,-5.56969 1.79339,-8.46003 -0.09,-1.52444 0.0587,-2.99355 0.3843,-4.41942 0.0418,-2.13347 0.84501,-4.10996 0.7686,-6.43972 0.23602,-1.34977 0.59215,-2.62292 -0.25621,-0.50507 -1.0373,1.31457 -2.38677,3.88214 -2.69008,5.93464 -0.3063,1.64414 -1.27179,2.68871 -1.6653,4.16688 -0.28736,1.70718 -1.22937,2.99731 -1.6653,4.54569 -0.59799,1.38627 0.12711,-2.80911 0.38428,-3.40927 0.49689,-1.88471 0.5269,-3.2787 1.40911,-4.92449 -0.0636,-0.54923 1.17609,-2.88549 0.25621,-1.6415 -0.8046,1.15088 -1.40528,1.69223 -1.65698,2.78384 -0.26631,0.6092 -0.6936,1.11815 -1.55251,1.39554"
       style="fill:none;stroke:#ffffff;stroke-width:1;stroke-linecap:butt;stroke-linejoin:miter;stroke-miterlimit:4;stroke-opacity:1;stroke-dasharray:none" />
    <g
       id="g3046"
       transform="matrix(1,0,0,0.85983276,0,31.774586)">
      <path
         sodipodi:nodetypes="ccccccccccccccccccccccccccccccccccccccccccccccccccccccccccccccccccccccccccccccccccccccccccccccccccccccccccccccccccccccccccccccccccccccccccccccccccccccccccccccccccccccccccccccccc"
         inkscape:connector-curvature="0"
         id="path3932"
         d="m 260,237.36218 c 2.20556,0.34433 2.04604,-2.40093 3.39728,-3.72864 3.214,-2.72675 1.79937,1.42813 -0.50508,2.52539 -1.13078,1.39793 -1.84823,0.9068 -2.82091,1.69717 0.27256,1.13411 -3.06543,6.54283 0.043,4.1112 0.80581,-0.48635 2.1606,-1.78583 3.78807,-2.52538 2.02938,-1.18425 3.7901,-2.85316 5.56806,-4.54628 0.85591,-0.35179 3.87548,-4.10867 3.01824,-2.27225 -1.62399,2.91791 -3.86966,5.63185 -6.81853,7.57615 -0.73273,1.82154 -2.30131,3.03294 -3.03046,4.79822 -0.23762,1.48766 -4.02536,4.27916 -2.27284,3.283 1.6764,-0.8702 4.66912,-2.23337 5.399,-3.56095 2.51803,-1.29833 3.97305,-4.21862 6.47029,-5.78297 1.70736,-1.29702 2.38984,-2.42967 4.29315,-3.53553 1.29718,-1.01956 1.35031,-1.29333 2.11601,-2.04572 1.59138,-0.3148 -3.48762,3.96132 -4.32881,5.76769 -0.82623,1.2042 -3.14301,4.97699 -4.60573,7.13717 -1.77243,2.1665 -3.25408,5.13476 -5.88049,6.20333 -0.96916,1.56271 -2.52731,3.82147 -3.71596,5.41342 -0.57611,1.83274 4.19773,-2.77954 5.04967,-4.03957 3.97452,-2.95512 5.87076,-5.34219 9.16667,-8.6453 3.02868,-1.81872 4.72837,-4.913 7.50194,-7.0131 1.85317,-2.01437 3.95383,-3.69581 5.76604,-5.76604 3.47929,-2.95249 0.90798,-1.94181 0.58972,-0.2923 -1.43426,1.58837 -4.25282,3.9216 -3.38025,2.69476 -4.02388,3.67317 -6.87192,8.44831 -11.23632,11.74472 -3.20437,3.56398 -5.08221,8.53762 -9.35591,10.79611 -1.48913,0.55424 -3.39544,3.87199 -5.17524,6.3439 1.01015,0.58058 5.95939,-1.3382 5.36683,-1.27749 2.2646,-2.01707 4.44501,-4.58357 6.81853,-6.81853 2.58867,-3.75439 5.44875,-7.68294 8.08379,-11.6193 2.15957,-2.65659 4.01991,-5.59335 6.47875,-8.24654 1.88945,-2.31898 2.90303,-3.3214 5.89305,-5.38797 2.81396,-3.37725 -2.98466,4.54591 -3.31767,6.53045 -2.73836,3.3832 -3.43224,4.66172 -5.46132,8.83843 -0.21236,2.82336 -3.75083,5.94838 -4.47926,8.74851 -1.03461,1.97832 -3.38964,3.65937 -4.67196,4.79823 -1.35605,1.0423 -3.60035,6.28345 -2.27284,6.43972 3.26859,-1.78435 5.42359,-3.86153 8.03888,-6.27112 2.29032,-2.44697 5.25457,-4.50994 6.10325,-7.87102 1.53631,-2.78067 3.15165,-5.37383 5.05077,-8.08122 2.19481,-3.02821 4.31021,-5.33104 6.31345,-8.33376 1.44817,-2.0235 5.15564,-7.20837 1.76777,-2.27284 -1.97719,3.72031 -2.91261,8.34663 -4.29315,12.37437 -1.23989,3.13761 -3.5882,6.87702 -5.3033,10.6066 -1.57336,2.31983 -2.66347,4.04071 -4.29315,5.80838 -0.71447,0.80272 -4.66511,6.77125 -2.27285,4.29315 3.42788,-2.49143 4.85591,-6.77946 7.32361,-10.10153 1.64045,-4.22383 3.76022,-7.98143 5.58532,-11.95773 1.44175,-3.36695 2.24466,-7.09486 4.76874,-9.76055 0.65097,-1.73398 2.47924,-3.44893 3.00159,-4.05331 1.33137,-2.11606 -2.26327,4.89282 -2.24397,6.57869 -1.99367,3.62362 -3.01638,9.09443 -4.29315,11.86929 0.0653,3.23614 -1.87703,5.93569 -3.03046,8.5863 -0.55845,1.91938 -1.94622,4.35711 -3.28299,5.80838 0.20433,0.67215 -2.33919,3.2156 -0.54742,2.31518 2.01609,-1.86366 3.65984,-3.88259 4.79453,-6.28063 1.98292,-3.0601 3.6156,-6.66426 5.34934,-9.67161 1.53783,-3.25228 2.74414,-6.16803 4.04061,-9.34391 1.39372,-2.35409 2.3251,-5.74514 4.04061,-8.33376 1.07264,-2.61113 -2.90488,4.50162 -3.16104,5.80649 -1.74575,4.23168 -3.56744,8.47568 -5.45286,12.6192 -0.8686,3.53404 -3.01711,9.83931 -3.70983,10.93783 0.0307,2.01584 -3.88349,7.43538 -2.32349,6.24436 2.26862,-3.34606 4.03248,-7.55804 6.06092,-10.85914 1.35507,-3.6529 3.13964,-6.90008 4.67863,-10.36742 1.2682,-2.53688 2.21962,-4.01361 3.40259,-6.55264 2.04957,-2.82965 3.37299,-6.18858 5.3033,-8.83883 1.85661,-4.33817 -2.95144,13.4537 -3.27709,14.2709 -0.86733,3.64872 -2.62664,7.26857 -4.04651,10.47783 -2.34056,1.70873 -2.40493,5.06505 -3.53554,7.57615 -1.21697,2.24974 -1.67693,5.8052 0.50508,1.76776 2.65107,-3.28946 1.6722,-3.95928 3.93556,-7.32916 2.74691,-4.67847 5.05105,-9.67707 8.43881,-13.88404 1.83583,-4.14152 4.158,-8.17948 5.55584,-12.37437 1.13945,-1.93083 2.2597,-5.14453 0.25253,-0.75761 -1.83747,5.38511 -2.9301,10.76345 -4.29314,16.16244 -1.35321,3.48572 -2.63052,6.74169 -4.54569,9.84899 -0.47846,1.93939 -1.76296,3.63922 -1.76777,5.80837 -0.30984,4.37704 4.53553,-4.5088 5.42149,-5.81378 3.20847,-4.11008 3.2956,-9.64505 5.69019,-14.13673 0.69777,-2.86944 1.77802,-6.4969 3.53553,-9.34391 -0.25694,-1.50133 3.28367,-6.49768 1.76777,-3.03046 -1.07468,3.80884 -1.96875,8.00713 -2.77792,10.85914 -0.50033,2.70013 -1.86982,5.46226 -2.27284,8.08122 -0.93766,2.62006 -1.55791,5.50337 -2.27285,8.33376 -0.0954,1.08088 -2.86389,6.72731 -0.88461,4.42015 2.69751,-2.4908 4.39356,-5.43114 6.44045,-8.46076 2.70026,-3.5234 3.54667,-6.33691 5.31391,-11.10846 0.90167,-4.76887 2.95232,-6.99328 4.63667,-11.70062 2.26487,-5.06416 -2.43817,6.90145 -3.38458,8.91948 -1.4222,3.63333 -2.62268,6.73658 -3.83838,10.35797 -1.08758,2.28117 -2.18999,5.24418 -2.98015,7.57224 -0.6861,1.48952 -2.7402,6.37869 -1.76777,6.06092 2.08446,-2.74953 4.62314,-7.11373 5.84848,-9.47402 1.50495,-1.78357 3.00578,-7.02312 5.01066,-9.71888 1.44361,-3.4759 3.07226,-6.74258 5.3033,-9.59645 0.97786,-1.56675 4.57336,-6.23162 3.283,-5.05076 -1.2172,2.48615 -2.34094,5.07198 -3.15395,7.9466 -1.37323,4.33507 -1.95952,7.26006 -2.91905,10.7385 -0.98146,4.27116 -2.50636,9.19753 -3.43991,12.87706 -0.63148,3.05766 -0.8005,2.40595 -1.59878,5.05587 2.19547,-4.08842 3.14834,-4.75198 4.38827,-9.19244 1.20699,-2.88232 2.30279,-5.53557 3.8259,-8.49859 1.34374,-2.95934 3.37647,-6.8217 4.09572,-8.73664 1.52836,-2.11479 3.63563,-4.53271 5.11525,-6.90737 0.90773,-1.55783 3.49995,-4.77299 3.60762,-4.61542 -2.71054,3.72428 -3.14185,8.57406 -4.76862,12.81822 -0.94994,3.31162 -2.70402,5.93009 -3.63723,9.47487 -0.63184,3.27874 -2.15699,6.83601 -3.99827,9.55411 -1.55761,1.60836 -2.47684,4.79599 -0.0423,1.05249 2.37702,-2.95397 3.89032,-6.86973 5.05077,-9.34391 1.00721,-3.45803 2.52262,-6.89743 4.04061,-10.10152 0.93912,-2.93094 3.40476,-5.15673 4.29314,-7.82869 0.92664,0.10166 2.51857,-5.05613 2.77792,-3.28299 -2.78083,2.5838 -3.5341,7.08747 -4.54568,10.85914 -1.37635,4.07286 -1.48724,7.73886 -3.03046,11.86929 -1.21226,1.95677 -1.20817,5.12371 -3.03046,7.07107 -0.32613,1.04516 -2.27241,4.40193 -1.76776,3.78807 2.84407,-2.13917 4.19261,-6.38871 5.43563,-7.97709 1.94691,-4.10243 4.1823,-8.14531 6.43366,-11.97342 0.56912,-2.51157 2.29441,-3.86943 3.03046,-6.31346 1.01721,-1.00246 1.71422,-3.35989 2.52538,-4.54568 0.83043,-1.82162 1.99333,-4.86066 0.25254,-0.75762 -2.8865,4.67317 -3.01784,10.35049 -5.05077,15.40483 -0.32934,3.6296 -1.56967,7.06866 -3.28299,10.35406 -0.75967,1.36131 -4.31659,7.93046 -1.76777,4.04061 2.63352,-4.43625 3.64087,-9.45071 6.31345,-13.88959 1.15283,-5.15736 1.79731,-5.64497 3.53554,-10.10153 1.11478,-2.70069 2.45308,-5.80012 3.78807,-8.33376 -0.24816,1.80792 -1.98561,5.02732 -2.20832,7.38256 -1.15621,3.42014 -2.35913,6.86534 -3.39299,10.30748 0.15307,2.8284 -1.5998,5.88391 -2.28148,8.79178 -0.70612,2.20639 -1.46275,4.73401 -2.47127,6.85322 0.57232,1.10428 3.15741,-4.63378 3.78807,-6.31346 1.35536,-4.49299 3.60148,-8.75358 4.48937,-13.24482 1.56361,-2.61846 2.62227,-6.02931 4.09692,-8.97853 1.1235,-2.48027 2.25402,-4.03186 0.98803,-0.3824 -1.0277,3.36042 -1.85987,8.9395 -3.51341,13.0093 -1.65035,4.1195 -1.37434,7.66941 -2.52538,10.85914 -2.62574,5.05895 -3.92962,8.52197 -0.73092,3.48214 2.2801,-3.97787 3.71681,-8.31058 5.27661,-12.57351 2.13161,-4.3367 3.25969,-9.128 4.79822,-13.38452 0.66991,-1.8067 3.60896,-7.79656 3.30531,-6.58351 -2.24267,4.5007 -4.00929,9.49432 -5.32561,14.41219 -0.82844,2.22185 -2.95112,9.73401 -2.47204,9.11316 -0.66539,4.03086 -2.11266,7.37864 -2.83126,11.08989 -2.21119,5.23561 2.10684,-1.23737 2.52538,-3.28299 2.18951,-4.42376 2.515,-7.53855 4.29315,-12.62691 1.01214,-3.40625 1.93622,-5.66248 3.28299,-8.5863 0.90289,-2.57149 1.60795,-4.99134 2.95202,-6.29133 2.636,-4.05562 -1.0417,3.28791 -0.93171,4.52357 -1.72765,4.06864 -2.65967,8.5445 -3.53554,12.6269 -0.7172,3.39433 -1.84642,7.75669 -3.03045,10.35407 -0.66209,2.06235 -2.45492,6.24322 0,2.52538 2.52584,-5.13214 5.10976,-10.2938 7.93529,-15.31055 1.79009,-2.48094 3.24001,-7.58176 3.934,-10.95342 0.9441,-3.39915 2.53834,-6.57815 3.78807,-9.59645 0.43434,-1.63284 -1.32173,2.312 -2.52538,6.56599 -0.74666,3.96877 -2.98112,9.69423 -3.38891,12.56405 -1.23779,4.06362 -2.73461,7.89046 -4.18724,11.67961 -0.14948,2.25852 -1.577,4.01547 -1.76776,6.31346 2.00544,-1.72411 4.06573,-7.32993 5.71182,-10.59211 1.37323,-4.52258 3.92791,-8.82302 4.64224,-13.65155 1.6721,-3.07896 2.39688,-6.69597 3.53554,-8.83884 2.93437,-3.82886 0.15603,0.33457 -0.75762,3.03046 -1.19311,3.89506 -2.11091,8.08062 -3.28299,11.86929 -0.66573,2.42943 -1.67491,5.32982 -2.52539,7.57615 -0.25761,1.93615 -1.31966,4.09597 -1.51523,6.35818 -0.33614,1.83737 -0.44035,4.08996 -0.75761,5.76365 1.09031,-0.22686 3.39658,-6.42214 4.79823,-8.83884 1.83163,-4.34256 3.67907,-8.50717 5.18588,-12.74955 1.40297,-3.5888 2.79166,-7.03041 4.6631,-10.23142 2.56421,-4.843 -2.62406,4.49532 -1.68136,5.4034 -1.63152,4.36502 -1.81551,9.22105 -3.62194,13.28442 -0.77267,1.95267 -1.05338,4.12875 -2.0203,6.06092 0.36165,1.12289 -2.74851,6.59131 -0.3732,3.72736"
         style="fill:none;stroke:#ffffff;stroke-width:1px;stroke-linecap:butt;stroke-linejoin:miter;stroke-opacity:1" />
      <path
         style="fill:none;stroke:#ffffff;stroke-width:1px;stroke-linecap:butt;stroke-linejoin:miter;stroke-opacity:1"
         d="m 510.89008,258.48637 c -2.20556,-0.34433 -2.04604,2.40093 -3.39728,3.72864 -3.214,2.72675 -1.79937,-1.42813 0.50508,-2.52539 1.13078,-1.39793 1.84823,-0.9068 2.82091,-1.69717 -0.27256,-1.13411 3.06543,-6.54283 -0.043,-4.1112 -0.80581,0.48635 -2.1606,1.78583 -3.78807,2.52538 -2.02938,1.18425 -3.7901,2.85316 -5.56806,4.54628 -0.85591,0.35179 -3.87548,4.10867 -3.01824,2.27225 1.62399,-2.91791 3.86966,-5.63185 6.81853,-7.57615 0.73273,-1.82154 2.30131,-3.03294 3.03046,-4.79822 0.23762,-1.48766 4.02536,-4.27916 2.27284,-3.283 -1.6764,0.8702 -4.66912,2.23337 -5.399,3.56095 -2.51803,1.29833 -3.97305,4.21862 -6.47029,5.78297 -1.70736,1.29702 -2.38984,2.42967 -4.29315,3.53553 -1.29718,1.01956 -1.35031,1.29333 -2.11601,2.04572 -1.59138,0.3148 3.48762,-3.96132 4.32881,-5.76769 0.82623,-1.2042 3.14301,-4.97699 4.60573,-7.13717 1.77243,-2.1665 3.25408,-5.13476 5.88049,-6.20333 0.96916,-1.56271 2.52731,-3.82147 3.71596,-5.41342 0.57611,-1.83274 -4.19773,2.77954 -5.04967,4.03957 -3.97452,2.95512 -5.87076,5.34219 -9.16667,8.6453 -3.02868,1.81872 -4.72837,4.913 -7.50194,7.0131 -1.85317,2.01437 -3.95383,3.69581 -5.76604,5.76604 -3.47929,2.95249 -0.90798,1.94181 -0.58972,0.2923 1.43426,-1.58837 4.25282,-3.9216 3.38025,-2.69476 4.02388,-3.67317 6.87192,-8.44831 11.23632,-11.74472 3.20437,-3.56398 5.08221,-8.53762 9.35591,-10.79611 1.48913,-0.55424 3.39544,-3.87199 5.17524,-6.3439 -1.01015,-0.58058 -5.95939,1.3382 -5.36683,1.27749 -2.2646,2.01707 -4.44501,4.58357 -6.81853,6.81853 -2.58867,3.75439 -5.44875,7.68294 -8.08379,11.6193 -2.15957,2.65659 -4.01991,5.59335 -6.47875,8.24654 -1.88945,2.31898 -2.90303,3.3214 -5.89305,5.38797 -2.81396,3.37725 2.98466,-4.54591 3.31767,-6.53045 2.73836,-3.3832 3.43224,-4.66172 5.46132,-8.83843 0.21236,-2.82336 3.75083,-5.94838 4.47926,-8.74851 1.03461,-1.97832 3.38964,-3.65937 4.67196,-4.79823 1.35605,-1.0423 3.60035,-6.28345 2.27284,-6.43972 -3.26859,1.78435 -5.42359,3.86153 -8.03888,6.27112 -2.29032,2.44697 -5.25457,4.50994 -6.10325,7.87102 -1.53631,2.78067 -3.15165,5.37383 -5.05077,8.08122 -2.19481,3.02821 -4.31021,5.33104 -6.31345,8.33376 -1.44817,2.0235 -5.15564,7.20837 -1.76777,2.27284 1.97719,-3.72031 2.91261,-8.34663 4.29315,-12.37437 1.23989,-3.13761 3.5882,-6.87702 5.3033,-10.6066 1.57336,-2.31983 2.66347,-4.04071 4.29315,-5.80838 0.71447,-0.80272 4.66511,-6.77125 2.27285,-4.29315 -3.42788,2.49143 -4.85591,6.77946 -7.32361,10.10153 -1.64045,4.22383 -3.76022,7.98143 -5.58532,11.95773 -1.44175,3.36695 -2.24466,7.09486 -4.76874,9.76055 -0.65097,1.73398 -2.47924,3.44893 -3.00159,4.05331 -1.33137,2.11606 2.26327,-4.89282 2.24397,-6.57869 1.99367,-3.62362 3.01638,-9.09443 4.29315,-11.86929 -0.0653,-3.23614 1.87703,-5.93569 3.03046,-8.5863 0.55845,-1.91938 1.94622,-4.35711 3.28299,-5.80838 -0.20433,-0.67215 2.33919,-3.2156 0.54742,-2.31518 -2.01609,1.86366 -3.65984,3.88259 -4.79453,6.28063 -1.98292,3.0601 -3.6156,6.66426 -5.34934,9.67161 -1.53783,3.25228 -2.74414,6.16803 -4.04061,9.34391 -1.39372,2.35409 -2.3251,5.74514 -4.04061,8.33376 -1.07264,2.61113 2.90488,-4.50162 3.16104,-5.80649 1.74575,-4.23168 3.56744,-8.47568 5.45286,-12.6192 0.8686,-3.53404 3.01711,-9.83931 3.70983,-10.93783 -0.0307,-2.01584 3.88349,-7.43538 2.32349,-6.24436 -2.26862,3.34606 -4.03248,7.55804 -6.06092,10.85914 -1.35507,3.6529 -3.13964,6.90008 -4.67863,10.36742 -1.2682,2.53688 -2.21962,4.01361 -3.40259,6.55264 -2.04957,2.82965 -3.37299,6.18858 -5.3033,8.83883 -1.85661,4.33817 2.95144,-13.4537 3.27709,-14.2709 0.86733,-3.64872 2.62664,-7.26857 4.04651,-10.47783 2.34056,-1.70873 2.40493,-5.06505 3.53554,-7.57615 1.21697,-2.24974 1.67693,-5.8052 -0.50508,-1.76776 -2.65107,3.28946 -1.6722,3.95928 -3.93556,7.32916 -2.74691,4.67847 -5.05105,9.67707 -8.43881,13.88404 -1.83583,4.14152 -4.158,8.17948 -5.55584,12.37437 -1.13945,1.93083 -2.2597,5.14453 -0.25253,0.75761 1.83747,-5.38511 2.9301,-10.76345 4.29314,-16.16244 1.35321,-3.48572 2.63052,-6.74169 4.54569,-9.84899 0.47846,-1.93939 1.76296,-3.63922 1.76777,-5.80837 0.30984,-4.37704 -4.53553,4.5088 -5.42149,5.81378 -3.20847,4.11008 -3.2956,9.64505 -5.69019,14.13673 -0.69777,2.86944 -1.77802,6.4969 -3.53553,9.34391 0.25694,1.50133 -3.28367,6.49768 -1.76777,3.03046 1.07468,-3.80884 1.96875,-8.00713 2.77792,-10.85914 0.50033,-2.70013 1.86982,-5.46226 2.27284,-8.08122 0.93766,-2.62006 1.55791,-5.50337 2.27285,-8.33376 0.0954,-1.08088 2.86389,-6.72731 0.88461,-4.42015 -2.69751,2.4908 -4.39356,5.43114 -6.44045,8.46076 -2.70026,3.5234 -3.54667,6.33691 -5.31391,11.10846 -0.90167,4.76887 -2.95232,6.99328 -4.63667,11.70062 -2.26487,5.06416 2.43817,-6.90145 3.38458,-8.91948 1.4222,-3.63333 2.62268,-6.73658 3.83838,-10.35797 1.08758,-2.28117 2.18999,-5.24418 2.98015,-7.57224 0.6861,-1.48952 2.7402,-6.37869 1.76777,-6.06092 -2.08446,2.74953 -4.62314,7.11373 -5.84848,9.47402 -1.50495,1.78357 -3.00578,7.02312 -5.01066,9.71888 -1.44361,3.4759 -3.07226,6.74258 -5.3033,9.59645 -0.97786,1.56675 -4.57336,6.23162 -3.283,5.05076 1.2172,-2.48615 2.34094,-5.07198 3.15395,-7.9466 1.37323,-4.33507 1.95952,-7.26006 2.91905,-10.7385 0.98146,-4.27116 2.50636,-9.19753 3.43991,-12.87706 0.63148,-3.05766 0.8005,-2.40595 1.59878,-5.05587 -2.19547,4.08842 -3.14834,4.75198 -4.38827,9.19244 -1.20699,2.88232 -2.30279,5.53557 -3.8259,8.49859 -1.34374,2.95934 -3.37647,6.8217 -4.09572,8.73664 -1.52836,2.11479 -3.63563,4.53271 -5.11525,6.90737 -0.90773,1.55783 -3.49995,4.77299 -3.60762,4.61542 2.71054,-3.72428 3.14185,-8.57406 4.76862,-12.81822 0.94994,-3.31162 2.70402,-5.93009 3.63723,-9.47487 0.63184,-3.27874 2.15699,-6.83601 3.99827,-9.55411 1.55761,-1.60836 2.47684,-4.79599 0.0423,-1.05249 -2.37702,2.95397 -3.89032,6.86973 -5.05077,9.34391 -1.00721,3.45803 -2.52262,6.89743 -4.04061,10.10152 -0.93912,2.93094 -3.40476,5.15673 -4.29314,7.82869 -0.92664,-0.10166 -2.51857,5.05613 -2.77792,3.28299 2.78083,-2.5838 3.5341,-7.08747 4.54568,-10.85914 1.37635,-4.07286 1.48724,-7.73886 3.03046,-11.86929 1.21226,-1.95677 1.20817,-5.12371 3.03046,-7.07107 0.32613,-1.04516 2.27241,-4.40193 1.76776,-3.78807 -2.84407,2.13917 -4.19261,6.38871 -5.43563,7.97709 -1.94691,4.10243 -4.1823,8.14531 -6.43366,11.97342 -0.56912,2.51157 -2.29441,3.86943 -3.03046,6.31346 -1.01721,1.00246 -1.71422,3.35989 -2.52538,4.54568 -0.83043,1.82162 -1.99333,4.86066 -0.25254,0.75762 2.8865,-4.67317 3.01784,-10.35049 5.05077,-15.40483 0.32934,-3.6296 1.56967,-7.06866 3.28299,-10.35406 0.75967,-1.36131 4.31659,-7.93046 1.76777,-4.04061 -2.63352,4.43625 -3.64087,9.45071 -6.31345,13.88959 -1.15283,5.15736 -1.79731,5.64497 -3.53554,10.10153 -1.11478,2.70069 -2.45308,5.80012 -3.78807,8.33376 0.24816,-1.80792 1.98561,-5.02732 2.20832,-7.38256 1.15621,-3.42014 2.35913,-6.86534 3.39299,-10.30748 -0.15307,-2.8284 1.5998,-5.88391 2.28148,-8.79178 0.70612,-2.20639 1.46275,-4.73401 2.47127,-6.85322 -0.57232,-1.10428 -3.15741,4.63378 -3.78807,6.31346 -1.35536,4.49299 -3.60148,8.75358 -4.48937,13.24482 -1.56361,2.61846 -2.62227,6.02931 -4.09692,8.97853 -1.1235,2.48027 -2.25402,4.03186 -0.98803,0.3824 1.0277,-3.36042 1.85987,-8.9395 3.51341,-13.0093 1.65035,-4.1195 1.37434,-7.66941 2.52538,-10.85914 2.62574,-5.05895 3.92962,-8.52197 0.73092,-3.48214 -2.2801,3.97787 -3.71681,8.31058 -5.27661,12.57351 -2.13161,4.3367 -3.25969,9.128 -4.79822,13.38452 -0.66991,1.8067 -3.60896,7.79656 -3.30531,6.58351 2.24267,-4.5007 4.00929,-9.49432 5.32561,-14.41219 0.82844,-2.22185 2.95112,-9.73401 2.47204,-9.11316 0.66539,-4.03086 2.11266,-7.37864 2.83126,-11.08989 2.21119,-5.23561 -2.10684,1.23737 -2.52538,3.28299 -2.18951,4.42376 -2.515,7.53855 -4.29315,12.62691 -1.01214,3.40625 -1.93622,5.66248 -3.28299,8.5863 -0.90289,2.57149 -1.60795,4.99134 -2.95202,6.29133 -2.636,4.05562 1.0417,-3.28791 0.93171,-4.52357 1.72765,-4.06864 2.65967,-8.5445 3.53554,-12.6269 0.7172,-3.39433 1.84642,-7.75669 3.03045,-10.35407 0.66209,-2.06235 2.45492,-6.24322 0,-2.52538 -2.52584,5.13214 -5.10976,10.2938 -7.93529,15.31055 -1.79009,2.48094 -3.24001,7.58176 -3.934,10.95342 -0.9441,3.39915 -2.53834,6.57815 -3.78807,9.59645 -0.43434,1.63284 1.32173,-2.312 2.52538,-6.56599 0.74666,-3.96877 2.98112,-9.69423 3.38891,-12.56405 1.23779,-4.06362 2.73461,-7.89046 4.18724,-11.67961 0.14948,-2.25852 1.577,-4.01547 1.76776,-6.31346 -2.00544,1.72411 -11.38716,27.5085 -13.03325,30.77068"
         id="path3935"
         inkscape:connector-curvature="0"
         sodipodi:nodetypes="ccccccccccccccccccccccccccccccccccccccccccccccccccccccccccccccccccccccccccccccccccccccccccccccccccccccccccccccccccccccccccccccccccccccccccccccccccccccccccccccccccc" />
    </g>
    <path
       style="fill:none;stroke:#ffffff;stroke-width:1.08156574px;stroke-linecap:butt;stroke-linejoin:miter;stroke-opacity:1"
       d="m 488.95829,330.79288 c -2.64506,0.84531 -7.95061,5.69073 -6.77538,6.06296 -1.9749,2.79749 -5.26025,4.02914 -7.71368,7.0459 -3.02075,3.10802 -6.41869,5.91761 -9.18393,9.25699 -4.20963,3.39952 -6.20222,6.15913 -10.61978,10.23212 -4.66936,4.59836 -11.051,7.11848 -15.69855,11.78515 -4.75078,4.53291 -9.37759,9.16119 -14.55813,13.23168 -2.34543,1.45874 -4.60584,4.29211 -6.40566,5.45688 0.61625,-0.79599 -5.01464,3.39156 -3.49254,-0.31146 3.78725,-4.29339 6.84109,-9.34176 11.26084,-12.96292 4.04215,-4.84524 9.48671,-8.51253 12.94408,-13.86018 2.84453,-3.52671 5.64132,-7.18541 8.98468,-10.30589 2.55368,-3.60223 5.83031,-7.15676 8.05005,-10.77465 3.83288,-3.33887 6.10918,-7.65566 8.82623,-11.87726 1.98346,-2.06414 3.38553,-3.04976 3.97904,-5.45139 3.00228,-1.4732 4.69072,-6.22331 7.02364,-9.10169 3.54558,-3.50253 6.2352,-7.65603 9.43724,-11.43613 1.74757,-2.06201 2.35781,-4.59336 4.72435,-5.56379 -0.80553,-1.86123 5.67025,-5.84807 1.09833,-3.67905 -4.87577,2.23003 -7.19456,5.20024 -11.20374,7.73762 -3.51746,4.03871 -7.162,6.61164 -10.01491,11.55695 -4.517,4.73114 -9.33533,9.3154 -13.31304,14.54255 -3.24113,2.85559 -5.24672,6.5341 -8.305,9.46428 -4.34163,3.49455 -8.4873,7.21121 -13.00243,10.52063 -2.86307,3.24765 -6.52667,5.75669 -8.90151,9.35872 -3.50952,2.81764 -6.52266,5.93967 -9.06008,9.55638 -4.77341,3.45144 -6.9178,8.79019 -11.44894,12.42707 -2.51941,3.51762 -6.16252,5.89655 -7.96166,9.2478"
       id="path3945"
       inkscape:connector-curvature="0" />
    <rect
       style="fill:#0066ff;stroke:#ffffff;stroke-width:2;stroke-linecap:round;stroke-linejoin:round;stroke-miterlimit:4;stroke-dasharray:none"
       id="rect3925"
       width="55"
       height="20"
       x="420"
       y="362.36218"
       inkscape:transform-center-x="45.833334"
       inkscape:transform-center-y="-130" />
    <rect
       style="fill:#0066ff;stroke:#ffffff;stroke-width:2;stroke-linecap:round;stroke-linejoin:round;stroke-miterlimit:4;stroke-dasharray:none"
       id="rect3921"
       width="20"
       height="15"
       x="440"
       y="327.36218" />
    <path
       style="color:#000000;fill:none;stroke:#ffffff;stroke-width:2;stroke-linecap:round;stroke-linejoin:miter;stroke-miterlimit:4;stroke-opacity:1;stroke-dasharray:none;stroke-dashoffset:0;marker:none;visibility:visible;display:inline;overflow:visible;enable-background:accumulate"
       d="m 400,297.36218 20,0 0,20"
       id="path3868"
       inkscape:connector-curvature="0" />
    <path
       style="color:#000000;fill:none;stroke:#ffffff;stroke-width:2;stroke-linecap:round;stroke-linejoin:miter;stroke-miterlimit:4;stroke-opacity:1;stroke-dasharray:none;stroke-dashoffset:0;marker:none;visibility:visible;display:inline;overflow:visible;enable-background:accumulate"
       d="m 400,292.36218 0,20 25,0"
       id="path3870"
       inkscape:connector-curvature="0" />
    <path
       style="color:#000000;fill:none;stroke:#ffffff;stroke-width:2;stroke-linecap:round;stroke-linejoin:miter;stroke-miterlimit:4;stroke-opacity:1;stroke-dasharray:none;stroke-dashoffset:0;marker:none;visibility:visible;display:inline;overflow:visible;enable-background:accumulate"
       d="m 425,327.36218 -30,0"
       id="path3872"
       inkscape:connector-curvature="0" />
    <path
       style="color:#000000;fill:none;stroke:#ffffff;stroke-width:2;stroke-linecap:round;stroke-linejoin:miter;stroke-miterlimit:4;stroke-opacity:1;stroke-dasharray:none;stroke-dashoffset:0;marker:none;visibility:visible;display:inline;overflow:visible;enable-background:accumulate"
       d="m 400,322.36218 0,25"
       id="path3874"
       inkscape:connector-curvature="0" />
    <path
       style="color:#000000;fill:none;stroke:#ffffff;stroke-width:2;stroke-linecap:round;stroke-linejoin:miter;stroke-miterlimit:4;stroke-opacity:1;stroke-dasharray:none;stroke-dashoffset:0;marker:none;visibility:visible;display:inline;overflow:visible;enable-background:accumulate"
       d="m 395,342.36218 35,0"
       id="path3876"
       inkscape:connector-curvature="0" />
    <path
       style="color:#000000;fill:none;stroke:#ffffff;stroke-width:2;stroke-linecap:round;stroke-linejoin:miter;stroke-miterlimit:4;stroke-opacity:1;stroke-dasharray:none;stroke-dashoffset:0;marker:none;visibility:visible;display:inline;overflow:visible;enable-background:accumulate"
       d="m 420,322.36218 0,25"
       id="path3878"
       inkscape:connector-curvature="0" />
    <path
       style="color:#000000;fill:none;stroke:#ffffff;stroke-width:2;stroke-linecap:round;stroke-linejoin:miter;stroke-miterlimit:4;stroke-opacity:1;stroke-dasharray:none;stroke-dashoffset:0;marker:none;visibility:visible;display:inline;overflow:visible;enable-background:accumulate"
       d="m 435,327.36218 30,0"
       id="path3880"
       inkscape:connector-curvature="0" />
    <path
       style="color:#000000;fill:none;stroke:#ffffff;stroke-width:2;stroke-linecap:round;stroke-linejoin:miter;stroke-miterlimit:4;stroke-opacity:1;stroke-dasharray:none;stroke-dashoffset:0;marker:none;visibility:visible;display:inline;overflow:visible;enable-background:accumulate"
       d="m 435,342.36218 30,0"
       id="path3882"
       inkscape:connector-curvature="0" />
    <path
       style="color:#000000;fill:none;stroke:#ffffff;stroke-width:2;stroke-linecap:round;stroke-linejoin:miter;stroke-miterlimit:4;stroke-opacity:1;stroke-dasharray:none;stroke-dashoffset:0;marker:none;visibility:visible;display:inline;overflow:visible;enable-background:accumulate"
       d="m 440,322.36218 0,25"
       id="path3884"
       inkscape:connector-curvature="0" />
    <path
       style="color:#000000;fill:none;stroke:#ffffff;stroke-width:2;stroke-linecap:round;stroke-linejoin:miter;stroke-miterlimit:4;stroke-opacity:1;stroke-dasharray:none;stroke-dashoffset:0;marker:none;visibility:visible;display:inline;overflow:visible;enable-background:accumulate"
       d="m 460,322.36218 0,25"
       id="path3886"
       inkscape:connector-curvature="0" />
    <path
       style="color:#000000;fill:none;stroke:#ffffff;stroke-width:2;stroke-linecap:round;stroke-linejoin:miter;stroke-miterlimit:4;stroke-opacity:1;stroke-dasharray:none;stroke-dashoffset:0;marker:none;visibility:visible;display:inline;overflow:visible;enable-background:accumulate"
       d="m 440,292.36218 0,25"
       id="path3896"
       inkscape:connector-curvature="0" />
    <path
       style="color:#000000;fill:none;stroke:#ffffff;stroke-width:2;stroke-linecap:round;stroke-linejoin:miter;stroke-miterlimit:4;stroke-opacity:1;stroke-dasharray:none;stroke-dashoffset:0;marker:none;visibility:visible;display:inline;overflow:visible;enable-background:accumulate"
       d="m 440,312.36218 30,0"
       id="path3898"
       inkscape:connector-curvature="0" />
    <path
       style="color:#000000;fill:none;stroke:#ffffff;stroke-width:2.19089030999999990;stroke-linecap:round;stroke-linejoin:miter;stroke-miterlimit:4;stroke-opacity:1;stroke-dasharray:none;stroke-dashoffset:0;marker:none;visibility:visible;display:inline;overflow:visible;enable-background:accumulate"
       d="m 435,297.36218 30,0"
       id="path3900"
       inkscape:connector-curvature="0" />
    <path
       style="color:#000000;fill:none;stroke:#ffffff;stroke-width:2;stroke-linecap:round;stroke-linejoin:miter;stroke-miterlimit:4;stroke-opacity:1;stroke-dasharray:none;stroke-dashoffset:0;marker:none;visibility:visible;display:inline;overflow:visible;enable-background:accumulate"
       d="m 460,297.36218 0,20"
       id="path3902"
       inkscape:connector-curvature="0"
       inkscape:export-xdpi="30.9"
       inkscape:export-ydpi="30.9" />
    <path
       style="color:#000000;fill:none;stroke:#ffffff;stroke-width:2;stroke-linecap:round;stroke-linejoin:miter;stroke-miterlimit:4;stroke-opacity:1;stroke-dasharray:none;stroke-dashoffset:0;marker:none;visibility:visible;display:inline;overflow:visible;enable-background:accumulate"
       d="m 480,382.36218 -65,0"
       id="path3888"
       inkscape:connector-curvature="0" />
    <path
       style="color:#000000;fill:none;stroke:#ffffff;stroke-width:2;stroke-linecap:round;stroke-linejoin:miter;stroke-miterlimit:4;stroke-opacity:1;stroke-dasharray:none;stroke-dashoffset:0;marker:none;visibility:visible;display:inline;overflow:visible;enable-background:accumulate"
       d="m 420,357.36218 0,30"
       id="path3890"
       inkscape:connector-curvature="0" />
    <path
       style="color:#000000;fill:none;stroke:#ffffff;stroke-width:2;stroke-linecap:round;stroke-linejoin:miter;stroke-miterlimit:4;stroke-opacity:1;stroke-dasharray:none;stroke-dashoffset:0;marker:none;visibility:visible;display:inline;overflow:visible;enable-background:accumulate"
       d="m 475,387.36218 0,-35"
       id="path3892"
       inkscape:connector-curvature="0" />
    <path
       style="color:#000000;fill:none;stroke:#ffffff;stroke-width:2;stroke-linecap:round;stroke-linejoin:miter;stroke-miterlimit:4;stroke-opacity:1;stroke-dasharray:none;stroke-dashoffset:0;marker:none;visibility:visible;display:inline;overflow:visible;enable-background:accumulate"
       d="m 480,362.36218 -65,0"
       id="path3894"
       inkscape:connector-curvature="0" />
  </g>
</svg>
