<?xml version="1.0" encoding="UTF-8" standalone="no"?>
<!-- Created by Syntax-Trax http://kevinpt.github.io/syntax-trax -->
<svg xmlns="http://www.w3.org/2000/svg"
xmlns:xlink="http://www.w3.org/1999/xlink"
xml:space="preserve"
width="794" height="130" version="1.1">
<style type="text/css">
<![CDATA[
.box_font {fill:#000000; text-anchor:middle;
    font-family:Times; font-size:14pt; font-weight:normal; font-style:italic;}
.bubble_font {fill:#000000; text-anchor:middle;
    font-family:Helvetica; font-size:14pt; font-weight:bold; font-style:normal;}
.token_font {fill:#000000; text-anchor:middle;
    font-family:Helvetica; font-size:16pt; font-weight:bold; font-style:normal;}
.label {fill:#000;
  text-anchor:middle;
  font-size:16pt; font-weight:bold; font-family:Sans;}
.link {fill: #0D47A1;}
.link:hover {fill: #0D47A1; text-decoration:underline;}
.link:visited {fill: #4A148C;}
]]>
</style>
<defs>
  <marker id="arrow" markerWidth="4" markerHeight="4" refX="2" refY="2" orient="auto" markerUnits="strokeWidth">
    <path d="M0,0 L0.5,2 L0,4 L4,2 z" fill="#000000" />
  </marker>
</defs>
<circle cx="9" cy="24.0" r="3" stroke="#000000" stroke-width="2" fill="#FFFFFF"/>
<rect x="30.0" y="10.0" width="103.0" height="30.0" stroke="#000000" stroke-width="2" fill="#90A4AE"/>
<text class="box_font" x="81.5" y="32.0">widget name</text>
<circle cx="170.0" cy="24.0" r="18.0" stroke="#000000" stroke-width="2" fill="#B3E5FC"/>
<text class="token_font" x="170.0" y="32.5">(</text>
<line x1="133.0" y1="24.0" x2="147.0" y2="24.0" stroke="#000000" stroke-width="2" fill="#fff" marker-end="url(#arrow)" />
<rect x="207.0" y="10.0" width="100.0" height="30.0" stroke="#000000" stroke-width="2" fill="#90A4AE"/>
<text class="box_font" x="257.0" y="32.0">widget class</text>
<line x1="188.0" y1="24.0" x2="202.0" y2="24.0" stroke="#000000" stroke-width="2" fill="#fff" marker-end="url(#arrow)" />
<circle cx="362.0" cy="24.0" r="18.0" stroke="#000000" stroke-width="2" fill="#B3E5FC"/>
<text class="token_font" x="362.0" y="32.5">|</text>
<rect x="399.0" y="10.0" width="140.0" height="30.0" stroke="#000000" stroke-width="2" fill="#90A4AE"/>
<text class="box_font" x="469.0" y="32.0">widget arguments</text>
<line x1="380.0" y1="24.0" x2="394.0" y2="24.0" stroke="#000000" stroke-width="2" fill="#fff" marker-end="url(#arrow)" />
<line x1="440.0" y1="48.0" x2="441.0" y2="48.0" stroke="#000000" stroke-width="2" fill="#fff" />
<line x1="325.0" y1="24.0" x2="339.0" y2="24.0" stroke="#000000" stroke-width="2" fill="#fff" marker-end="url(#arrow)" />
<line x1="540.0" y1="24.0" x2="559.0" y2="24.0" stroke="#000000" stroke-width="2" fill="#fff" />
<path d="M334.0,33.0 A9.0,9.0 0 0,0 325.0,24.0" stroke="#000000" stroke-width="2" fill="none"/>
<line x1="343.0" y1="48.0" x2="436.0" y2="48.0" stroke="#000000" stroke-width="2" fill="#fff" marker-end="url(#arrow)" />
<line x1="441.0" y1="48.0" x2="536.0" y2="48.0" stroke="#000000" stroke-width="2" fill="#fff" marker-end="url(#arrow)" />
<path d="M334.0,39.0 A9.0,9.0 0 0,0 343.0,48.0" stroke="#000000" stroke-width="2" fill="none"/>
<path d="M540.0,48.0 A9.0,9.0 0 0,0 549.0,39.0" stroke="#000000" stroke-width="2" fill="none"/>
<path d="M558.0,24.0 A9.0,9.0 0 0,0 549.0,33.0" stroke="#000000" stroke-width="2" fill="none"/>
<line x1="334.0" y1="39.0" x2="334.0" y2="33.0" stroke="#000000" stroke-width="2" fill="#fff" />
<line x1="549.0" y1="39.0" x2="549.0" y2="33.0" stroke="#000000" stroke-width="2" fill="#fff" />
<line x1="307.0" y1="24.0" x2="321.0" y2="24.0" stroke="#000000" stroke-width="2" fill="#fff" marker-end="url(#arrow)" />
<circle cx="594.0" cy="24.0" r="18.0" stroke="#000000" stroke-width="2" fill="#B3E5FC"/>
<text class="token_font" x="594.0" y="32.5">)</text>
<line x1="557.0" y1="24.0" x2="571.0" y2="24.0" stroke="#000000" stroke-width="2" fill="#fff" marker-end="url(#arrow)" />
<line x1="651.5" y1="88.0" x2="652.5" y2="88.0" stroke="#000000" stroke-width="2" fill="#fff" />
<rect x="570.0" y="94.0" width="166.0" height="30.0" stroke="#000000" stroke-width="2" fill="#90A4AE"/>
<text class="box_font" x="653.0" y="116.0">geometry mgr. config</text>
<line x1="541" y1="88.0" x2="647.5" y2="88.0" stroke="#000000" stroke-width="2" fill="#fff" marker-end="url(#arrow)" />
<line x1="652.5" y1="88.0" x2="766.0" y2="88.0" stroke="#000000" stroke-width="2" fill="#fff" />
<path d="M550.0,97.0 A9,9 0 0,0 541.0,88.0" stroke="#000000" stroke-width="2" fill="none"/>
<line x1="559" y1="108.0" x2="565.0" y2="108.0" stroke="#000000" stroke-width="2" fill="#fff" marker-end="url(#arrow)" />
<line x1="737.0" y1="108.0" x2="743.0" y2="108.0" stroke="#000000" stroke-width="2" fill="#fff" marker-end="url(#arrow)" />
<path d="M550.0,99.0 A9,9 0 0,0 559.0,108.0" stroke="#000000" stroke-width="2" fill="none"/>
<path d="M747.0,108.0 A9.0,9.0 0 0,0 756.0,99.0" stroke="#000000" stroke-width="2" fill="none"/>
<path d="M765.0,88.0 A9.0,9.0 0 0,0 756.0,97.0" stroke="#000000" stroke-width="2" fill="none"/>
<line x1="550" y1="99.0" x2="550" y2="97.0" stroke="#000000" stroke-width="2" fill="#fff" />
<line x1="756.0" y1="99.0" x2="756.0" y2="97.0" stroke="#000000" stroke-width="2" fill="#fff" />
<line x1="613.0" y1="24.0" x2="631.0" y2="24.0" stroke="#000000" stroke-width="2" fill="#fff" />
<path d="M640.0,33.0 A9.0,9.0 0 0,0 631.0,24.0" stroke="#000000" stroke-width="2" fill="none"/>
<line x1="640.0" y1="33.0" x2="640.0" y2="42.0" stroke="#000000" stroke-width="2" fill="#fff" marker-end="url(#arrow)" />
<line x1="640.0" y1="46.0" x2="640.0" y2="59.0" stroke="#000000" stroke-width="2" fill="#fff" />
<path d="M631.0,68.0 A9.0,9.0 0 0,0 640.0,59.0" stroke="#000000" stroke-width="2" fill="none"/>
<line x1="631.0" y1="68.0" x2="581.0" y2="68.0" stroke="#000000" stroke-width="2" fill="#fff" marker-end="url(#arrow)" />
<line x1="577.0" y1="68.0" x2="523" y2="68.0" stroke="#000000" stroke-width="2" fill="#fff" />
<path d="M523.0,68.0 A10.0,10.0 0 0,0 523.0,88.0" stroke="#000000" stroke-width="2" fill="none"/>
<line x1="523" y1="88.0" x2="537.0" y2="88.0" stroke="#000000" stroke-width="2" fill="#fff" marker-end="url(#arrow)" />
<line x1="11" y1="24.0" x2="25.0" y2="24.0" stroke="#000000" stroke-width="2" fill="#fff" marker-end="url(#arrow)" />
<circle cx="785.0" cy="88.0" r="3.0" stroke="#000000" stroke-width="2" fill="#FFFFFF"/>
<line x1="764.0" y1="88.0" x2="778.0" y2="88.0" stroke="#000000" stroke-width="2" fill="#fff" marker-end="url(#arrow)" />
</svg>