<?xml version="1.0" encoding="UTF-8" standalone="no"?>
<!-- Created by Syntax-Trax http://kevinpt.github.io/syntax-trax -->
<svg xmlns="http://www.w3.org/2000/svg"
xmlns:xlink="http://www.w3.org/1999/xlink"
xml:space="preserve"
width="459" height="122" version="1.1">
<style type="text/css">
<![CDATA[
.box_font {fill:#000000; text-anchor:middle;
    font-family:Times; font-size:14pt; font-weight:normal; font-style:italic;}
.bubble_font {fill:#000000; text-anchor:middle;
    font-family:Helvetica; font-size:14pt; font-weight:bold; font-style:normal;}
.token_font {fill:#000000; text-anchor:middle;
    font-family:Helvetica; font-size:16pt; font-weight:bold; font-style:normal;}
.label {fill:#000;
  text-anchor:middle;
  font-size:16pt; font-weight:bold; font-family:Sans;}
.link {fill: #0D47A1;}
.link:hover {fill: #0D47A1; text-decoration:underline;}
.link:visited {fill: #4A148C;}
]]>
</style>
<defs>
  <marker id="arrow" markerWidth="4" markerHeight="4" refX="2" refY="2" orient="auto" markerUnits="strokeWidth">
    <path d="M0,0 L0.5,2 L0,4 L4,2 z" fill="#000000" />
  </marker>
</defs>
<circle cx="9" cy="24.0" r="3" stroke="#000000" stroke-width="2" fill="#FFFFFF"/>
<circle cx="48.0" cy="24.0" r="18.0" stroke="#000000" stroke-width="2" fill="#B3E5FC"/>
<text class="token_font" x="48.0" y="32.5">[</text>
<path d="M119.5,40.0 A16.0,16.0 0 0,1 119.5,8.0 H177.5 A16.0,16.0 0 0,1 177.5,40.0 z" stroke="#000000" stroke-width="2" fill="#B3E5FC"/>
<text class="bubble_font" x="148.5" y="31.5">widgets</text>
<path d="M129.0,78.0 A16.0,16.0 0 0,1 129.0,46.0 H153.0 A16.0,16.0 0 0,1 153.0,78.0 z" stroke="#000000" stroke-width="2" fill="#B3E5FC"/>
<text class="bubble_font" x="141.0" y="69.5">grid</text>
<path d="M129.0,116.0 A16.0,16.0 0 0,1 129.0,84.0 H168.0 A16.0,16.0 0 0,1 168.0,116.0 z" stroke="#000000" stroke-width="2" fill="#B3E5FC"/>
<text class="bubble_font" x="148.5" y="107.5">menu</text>
<line x1="84.0" y1="24.0" x2="98.5" y2="24.0" stroke="#000000" stroke-width="2" fill="#fff" marker-end="url(#arrow)" />
<line x1="194.5" y1="24.0" x2="214.0" y2="24.0" stroke="#000000" stroke-width="2" fill="#fff" />
<path d="M93.0,33.0 A9.0,9.0 0 0,0 84.0,24.0" stroke="#000000" stroke-width="2" fill="none"/>
<line x1="102.0" y1="62.0" x2="108.0" y2="62.0" stroke="#000000" stroke-width="2" fill="#fff" marker-end="url(#arrow)" />
<line x1="170.0" y1="62.0" x2="191.0" y2="62.0" stroke="#000000" stroke-width="2" fill="#fff" marker-end="url(#arrow)" />
<path d="M93.0,53.0 A9.0,9.0 0 0,0 102.0,62.0" stroke="#000000" stroke-width="2" fill="none"/>
<path d="M195.0,62.0 A9.0,9.0 0 0,0 204.0,53.0" stroke="#000000" stroke-width="2" fill="none"/>
<line x1="102.0" y1="100.0" x2="108.0" y2="100.0" stroke="#000000" stroke-width="2" fill="#fff" marker-end="url(#arrow)" />
<line x1="185.0" y1="100.0" x2="191.0" y2="100.0" stroke="#000000" stroke-width="2" fill="#fff" marker-end="url(#arrow)" />
<path d="M93.0,91.0 A9.0,9.0 0 0,0 102.0,100.0" stroke="#000000" stroke-width="2" fill="none"/>
<path d="M195.0,100.0 A9.0,9.0 0 0,0 204.0,91.0" stroke="#000000" stroke-width="2" fill="none"/>
<path d="M213.0,24.0 A9.0,9.0 0 0,0 204.0,33.0" stroke="#000000" stroke-width="2" fill="none"/>
<line x1="93.0" y1="91.0" x2="93.0" y2="33.0" stroke="#000000" stroke-width="2" fill="#fff" />
<line x1="204.0" y1="91.0" x2="204.0" y2="33.0" stroke="#000000" stroke-width="2" fill="#fff" />
<line x1="66.0" y1="24.0" x2="80.0" y2="24.0" stroke="#000000" stroke-width="2" fill="#fff" marker-end="url(#arrow)" />
<line x1="301.0" y1="24.0" x2="302.0" y2="24.0" stroke="#000000" stroke-width="2" fill="#fff" />
<rect x="259.0" y="30.0" width="87.0" height="30.0" stroke="#000000" stroke-width="2" fill="#90A4AE"/>
<text class="box_font" x="302.5" y="52.0">parameter</text>
<line x1="230.0" y1="24.0" x2="297.0" y2="24.0" stroke="#000000" stroke-width="2" fill="#fff" marker-end="url(#arrow)" />
<line x1="302.0" y1="24.0" x2="376.0" y2="24.0" stroke="#000000" stroke-width="2" fill="#fff" />
<path d="M239.0,33.0 A9.0,9.0 0 0,0 230.0,24.0" stroke="#000000" stroke-width="2" fill="none"/>
<line x1="248.0" y1="44.0" x2="254.0" y2="44.0" stroke="#000000" stroke-width="2" fill="#fff" marker-end="url(#arrow)" />
<line x1="347.0" y1="44.0" x2="353.0" y2="44.0" stroke="#000000" stroke-width="2" fill="#fff" marker-end="url(#arrow)" />
<path d="M239.0,35.0 A9.0,9.0 0 0,0 248.0,44.0" stroke="#000000" stroke-width="2" fill="none"/>
<path d="M357.0,44.0 A9.0,9.0 0 0,0 366.0,35.0" stroke="#000000" stroke-width="2" fill="none"/>
<path d="M375.0,24.0 A9.0,9.0 0 0,0 366.0,33.0" stroke="#000000" stroke-width="2" fill="none"/>
<line x1="239.0" y1="35.0" x2="239.0" y2="33.0" stroke="#000000" stroke-width="2" fill="#fff" />
<line x1="366.0" y1="35.0" x2="366.0" y2="33.0" stroke="#000000" stroke-width="2" fill="#fff" />
<line x1="212.0" y1="24.0" x2="226.0" y2="24.0" stroke="#000000" stroke-width="2" fill="#fff" marker-end="url(#arrow)" />
<circle cx="411.0" cy="24.0" r="18.0" stroke="#000000" stroke-width="2" fill="#B3E5FC"/>
<text class="token_font" x="411.0" y="32.5">]</text>
<line x1="374.0" y1="24.0" x2="388.0" y2="24.0" stroke="#000000" stroke-width="2" fill="#fff" marker-end="url(#arrow)" />
<line x1="11" y1="24.0" x2="25.0" y2="24.0" stroke="#000000" stroke-width="2" fill="#fff" marker-end="url(#arrow)" />
<circle cx="450.0" cy="24.0" r="3.0" stroke="#000000" stroke-width="2" fill="#FFFFFF"/>
<line x1="429.0" y1="24.0" x2="443.0" y2="24.0" stroke="#000000" stroke-width="2" fill="#fff" marker-end="url(#arrow)" />
</svg>