<?xml version="1.0" encoding="UTF-8" standalone="no"?>
<!-- Created by Syntax-Trax http://kevinpt.github.io/syntax-trax -->
<svg xmlns="http://www.w3.org/2000/svg"
xmlns:xlink="http://www.w3.org/1999/xlink"
xml:space="preserve"
width="459" height="122" version="1.1">
<style type="text/css">
<![CDATA[
.box_font {fill:#000000; text-anchor:middle;
    font-family:Times; font-size:14pt; font-weight:normal; font-style:italic;}
.bubble_font {fill:#000000; text-anchor:middle;
    font-family:Helvetica; font-size:14pt; font-weight:bold; font-style:normal;}
.title_font {fill:#000000; text-anchor:middle;
    font-family:Helvetica; font-size:22pt; font-weight:bold; font-style:normal;}
.token_font {fill:#000000; text-anchor:middle;
    font-family:Helvetica; font-size:16pt; font-weight:bold; font-style:normal;}
.label {fill:#000;
  text-anchor:middle;
  font-size:16pt; font-weight:bold; font-family:Sans;}
.link {fill: #0D47A1;}
.link:hover {fill: #0D47A1; text-decoration:underline;}
.link:visited {fill: #4A148C;}
]]>
</style>
<defs>
  <marker id="arrow" markerWidth="5" markerHeight="4" refX="2.5" refY="2" orient="auto" markerUnits="strokeWidth">
    <path d="M0,0 L0.5,2 L0,4 L4.5,2 z" fill="#000000" />
  </marker>
</defs>
<circle cx="51.0" cy="27.0" r="18.0" stroke="none" fill-opacity="0.498039215686" fill="#000000"/>
<path d="M122.5,43.0 A16.0,16.0 0 0,1 122.5,11.0 H180.5 A16.0,16.0 0 0,1 180.5,43.0 z" stroke="none" fill-opacity="0.498039215686" fill="#000000"/>
<path d="M132.0,81.0 A16.0,16.0 0 0,1 132.0,49.0 H156.0 A16.0,16.0 0 0,1 156.0,81.0 z" stroke="none" fill-opacity="0.498039215686" fill="#000000"/>
<path d="M132.0,119.0 A16.0,16.0 0 0,1 132.0,87.0 H171.0 A16.0,16.0 0 0,1 171.0,119.0 z" stroke="none" fill-opacity="0.498039215686" fill="#000000"/>
<rect x="262.0" y="32.0" width="87.0" height="30.0" stroke="none" fill-opacity="0.498039215686" fill="#000000"/>
<circle cx="414.0" cy="27.0" r="18.0" stroke="none" fill-opacity="0.498039215686" fill="#000000"/>
<circle cx="9" cy="23.0" r="3" stroke="#000000" stroke-width="2" fill="#FFFFFF"/>
<circle cx="48.0" cy="24.0" r="18.0" stroke="#000000" stroke-width="2" fill="#B3E5FC"/>
<text class="token_font" x="48.0" y="32.0">[</text>
<path d="M119.5,40.0 A16.0,16.0 0 0,1 119.5,8.0 H177.5 A16.0,16.0 0 0,1 177.5,40.0 z" stroke="#000000" stroke-width="2" fill="#B3E5FC"/>
<text class="bubble_font" x="148.5" y="31.0">widgets</text>
<path d="M129.0,78.0 A16.0,16.0 0 0,1 129.0,46.0 H153.0 A16.0,16.0 0 0,1 153.0,78.0 z" stroke="#000000" stroke-width="2" fill="#B3E5FC"/>
<text class="bubble_font" x="141.0" y="69.0">grid</text>
<path d="M129.0,116.0 A16.0,16.0 0 0,1 129.0,84.0 H168.0 A16.0,16.0 0 0,1 168.0,116.0 z" stroke="#000000" stroke-width="2" fill="#B3E5FC"/>
<text class="bubble_font" x="148.5" y="107.0">menu</text>
<line x1="84.0" y1="23.0" x2="98.5" y2="23.0" stroke="#000000" stroke-width="2" marker-end="url(#arrow)" />
<line x1="194.5" y1="23.0" x2="214.0" y2="23.0" stroke="#000000" stroke-width="2" />
<path d="M93.0,32.0 A9.0,9.0 0 0,0 84.0,23.0" stroke="#000000" stroke-width="2" fill="none"/>
<line x1="102.0" y1="61.0" x2="108.0" y2="61.0" stroke="#000000" stroke-width="2" marker-end="url(#arrow)" />
<line x1="170.0" y1="61.0" x2="191.0" y2="61.0" stroke="#000000" stroke-width="2" marker-end="url(#arrow)" />
<path d="M93.0,52.0 A9.0,9.0 0 0,0 102.0,61.0" stroke="#000000" stroke-width="2" fill="none"/>
<path d="M195.0,61.0 A9.0,9.0 0 0,0 204.0,52.0" stroke="#000000" stroke-width="2" fill="none"/>
<line x1="102.0" y1="99.0" x2="108.0" y2="99.0" stroke="#000000" stroke-width="2" marker-end="url(#arrow)" />
<line x1="185.0" y1="99.0" x2="191.0" y2="99.0" stroke="#000000" stroke-width="2" marker-end="url(#arrow)" />
<path d="M93.0,90.0 A9.0,9.0 0 0,0 102.0,99.0" stroke="#000000" stroke-width="2" fill="none"/>
<path d="M195.0,99.0 A9.0,9.0 0 0,0 204.0,90.0" stroke="#000000" stroke-width="2" fill="none"/>
<path d="M213.0,23.0 A9.0,9.0 0 0,0 204.0,32.0" stroke="#000000" stroke-width="2" fill="none"/>
<line x1="93.0" y1="90.0" x2="93.0" y2="32.0" stroke="#000000" stroke-width="2" />
<line x1="204.0" y1="90.0" x2="204.0" y2="32.0" stroke="#000000" stroke-width="2" />
<line x1="66.0" y1="23.0" x2="80.0" y2="23.0" stroke="#000000" stroke-width="2" marker-end="url(#arrow)" />
<line x1="301.0" y1="23.0" x2="302.0" y2="23.0" stroke="#000000" stroke-width="2" />
<rect x="259.0" y="29.0" width="87.0" height="30.0" stroke="#000000" stroke-width="2" fill="#90A4AE"/>
<text class="box_font" x="302.5" y="51.0">parameter</text>
<line x1="230.0" y1="23.0" x2="297.0" y2="23.0" stroke="#000000" stroke-width="2" marker-end="url(#arrow)" />
<line x1="302.0" y1="23.0" x2="376.0" y2="23.0" stroke="#000000" stroke-width="2" />
<path d="M239.0,32.0 A9.0,9.0 0 0,0 230.0,23.0" stroke="#000000" stroke-width="2" fill="none"/>
<line x1="248.0" y1="43.0" x2="254.0" y2="43.0" stroke="#000000" stroke-width="2" marker-end="url(#arrow)" />
<line x1="347.0" y1="43.0" x2="353.0" y2="43.0" stroke="#000000" stroke-width="2" marker-end="url(#arrow)" />
<path d="M239.0,34.0 A9.0,9.0 0 0,0 248.0,43.0" stroke="#000000" stroke-width="2" fill="none"/>
<path d="M357.0,43.0 A9.0,9.0 0 0,0 366.0,34.0" stroke="#000000" stroke-width="2" fill="none"/>
<path d="M375.0,23.0 A9.0,9.0 0 0,0 366.0,32.0" stroke="#000000" stroke-width="2" fill="none"/>
<line x1="239.0" y1="34.0" x2="239.0" y2="32.0" stroke="#000000" stroke-width="2" />
<line x1="366.0" y1="34.0" x2="366.0" y2="32.0" stroke="#000000" stroke-width="2" />
<line x1="212.0" y1="23.0" x2="226.0" y2="23.0" stroke="#000000" stroke-width="2" marker-end="url(#arrow)" />
<circle cx="411.0" cy="24.0" r="18.0" stroke="#000000" stroke-width="2" fill="#B3E5FC"/>
<text class="token_font" x="411.0" y="32.0">]</text>
<line x1="374.0" y1="23.0" x2="388.0" y2="23.0" stroke="#000000" stroke-width="2" marker-end="url(#arrow)" />
<line x1="11" y1="23.0" x2="25.0" y2="23.0" stroke="#000000" stroke-width="2" marker-end="url(#arrow)" />
<circle cx="450.0" cy="23.0" r="3.0" stroke="#000000" stroke-width="2" fill="#FFFFFF"/>
<line x1="429.0" y1="23.0" x2="443.0" y2="23.0" stroke="#000000" stroke-width="2" marker-end="url(#arrow)" />
</svg>