<?xml version="1.0" encoding="UTF-8" standalone="no"?>
<!-- Created by Syntax-Trax http://kevinpt.github.io/syntax-trax -->
<svg xmlns="http://www.w3.org/2000/svg"
xmlns:xlink="http://www.w3.org/1999/xlink"
xml:space="preserve"
width="602" height="122" version="1.1">
<style type="text/css">
<![CDATA[
.box_font {fill:#000000; text-anchor:middle;
    font-family:Times; font-size:14pt; font-weight:normal; font-style:italic;}
.bubble_font {fill:#000000; text-anchor:middle;
    font-family:Helvetica; font-size:14pt; font-weight:bold; font-style:normal;}
.token_font {fill:#000000; text-anchor:middle;
    font-family:Helvetica; font-size:16pt; font-weight:bold; font-style:normal;}
.label {fill:#000;
  text-anchor:middle;
  font-size:16pt; font-weight:bold; font-family:Sans;}
.link {fill: #0D47A1;}
.link:hover {fill: #0D47A1; text-decoration:underline;}
.link:visited {fill: #4A148C;}
]]>
</style>
<defs>
  <marker id="arrow" markerWidth="4" markerHeight="4" refX="2" refY="2" orient="auto" markerUnits="strokeWidth">
    <path d="M0,0 L0.5,2 L0,4 L4,2 z" fill="#000000" />
  </marker>
</defs>
<circle cx="9" cy="24.0" r="3" stroke="#000000" stroke-width="2" fill="#FFFFFF"/>
<circle cx="48.0" cy="24.0" r="18.0" stroke="#000000" stroke-width="2" fill="#B3E5FC"/>
<text class="token_font" x="48.0" y="32.5">&lt;</text>
<path d="M129.0,40.0 A16.0,16.0 0 0,1 129.0,8.0 H153.0 A16.0,16.0 0 0,1 153.0,40.0 z" stroke="#000000" stroke-width="2" fill="#B3E5FC"/>
<text class="bubble_font" x="141.0" y="31.5">grid</text>
<path d="M129.0,78.0 A16.0,16.0 0 0,1 129.0,46.0 H160.0 A16.0,16.0 0 0,1 160.0,78.0 z" stroke="#000000" stroke-width="2" fill="#B3E5FC"/>
<text class="bubble_font" x="144.5" y="69.5">pack</text>
<path d="M129.0,116.0 A16.0,16.0 0 0,1 129.0,84.0 H165.0 A16.0,16.0 0 0,1 165.0,116.0 z" stroke="#000000" stroke-width="2" fill="#B3E5FC"/>
<text class="bubble_font" x="147.0" y="107.5">place</text>
<line x1="84.0" y1="24.0" x2="108.0" y2="24.0" stroke="#000000" stroke-width="2" fill="#fff" marker-end="url(#arrow)" />
<line x1="170.0" y1="24.0" x2="211.0" y2="24.0" stroke="#000000" stroke-width="2" fill="#fff" />
<path d="M93.0,33.0 A9.0,9.0 0 0,0 84.0,24.0" stroke="#000000" stroke-width="2" fill="none"/>
<line x1="102.0" y1="62.0" x2="108.0" y2="62.0" stroke="#000000" stroke-width="2" fill="#fff" marker-end="url(#arrow)" />
<line x1="177.0" y1="62.0" x2="188.0" y2="62.0" stroke="#000000" stroke-width="2" fill="#fff" marker-end="url(#arrow)" />
<path d="M93.0,53.0 A9.0,9.0 0 0,0 102.0,62.0" stroke="#000000" stroke-width="2" fill="none"/>
<path d="M192.0,62.0 A9.0,9.0 0 0,0 201.0,53.0" stroke="#000000" stroke-width="2" fill="none"/>
<line x1="102.0" y1="100.0" x2="108.0" y2="100.0" stroke="#000000" stroke-width="2" fill="#fff" marker-end="url(#arrow)" />
<line x1="182.0" y1="100.0" x2="188.0" y2="100.0" stroke="#000000" stroke-width="2" fill="#fff" marker-end="url(#arrow)" />
<path d="M93.0,91.0 A9.0,9.0 0 0,0 102.0,100.0" stroke="#000000" stroke-width="2" fill="none"/>
<path d="M192.0,100.0 A9.0,9.0 0 0,0 201.0,91.0" stroke="#000000" stroke-width="2" fill="none"/>
<path d="M210.0,24.0 A9.0,9.0 0 0,0 201.0,33.0" stroke="#000000" stroke-width="2" fill="none"/>
<line x1="93.0" y1="91.0" x2="93.0" y2="33.0" stroke="#000000" stroke-width="2" fill="#fff" />
<line x1="201.0" y1="91.0" x2="201.0" y2="33.0" stroke="#000000" stroke-width="2" fill="#fff" />
<line x1="66.0" y1="24.0" x2="80.0" y2="24.0" stroke="#000000" stroke-width="2" fill="#fff" marker-end="url(#arrow)" />
<circle cx="264.0" cy="24.0" r="18.0" stroke="#000000" stroke-width="2" fill="#B3E5FC"/>
<text class="token_font" x="264.0" y="32.5">|</text>
<rect x="301.0" y="10.0" width="198.0" height="30.0" stroke="#000000" stroke-width="2" fill="#90A4AE"/>
<text class="box_font" x="400.0" y="32.0">geometry mgr. arguments</text>
<line x1="282.0" y1="24.0" x2="296.0" y2="24.0" stroke="#000000" stroke-width="2" fill="#fff" marker-end="url(#arrow)" />
<line x1="371.0" y1="48.0" x2="372.0" y2="48.0" stroke="#000000" stroke-width="2" fill="#fff" />
<line x1="227.0" y1="24.0" x2="241.0" y2="24.0" stroke="#000000" stroke-width="2" fill="#fff" marker-end="url(#arrow)" />
<line x1="500.0" y1="24.0" x2="519.0" y2="24.0" stroke="#000000" stroke-width="2" fill="#fff" />
<path d="M236.0,33.0 A9.0,9.0 0 0,0 227.0,24.0" stroke="#000000" stroke-width="2" fill="none"/>
<line x1="245.0" y1="48.0" x2="367.0" y2="48.0" stroke="#000000" stroke-width="2" fill="#fff" marker-end="url(#arrow)" />
<line x1="372.0" y1="48.0" x2="496.0" y2="48.0" stroke="#000000" stroke-width="2" fill="#fff" marker-end="url(#arrow)" />
<path d="M236.0,39.0 A9.0,9.0 0 0,0 245.0,48.0" stroke="#000000" stroke-width="2" fill="none"/>
<path d="M500.0,48.0 A9.0,9.0 0 0,0 509.0,39.0" stroke="#000000" stroke-width="2" fill="none"/>
<path d="M518.0,24.0 A9.0,9.0 0 0,0 509.0,33.0" stroke="#000000" stroke-width="2" fill="none"/>
<line x1="236.0" y1="39.0" x2="236.0" y2="33.0" stroke="#000000" stroke-width="2" fill="#fff" />
<line x1="509.0" y1="39.0" x2="509.0" y2="33.0" stroke="#000000" stroke-width="2" fill="#fff" />
<line x1="209.0" y1="24.0" x2="223.0" y2="24.0" stroke="#000000" stroke-width="2" fill="#fff" marker-end="url(#arrow)" />
<circle cx="554.0" cy="24.0" r="18.0" stroke="#000000" stroke-width="2" fill="#B3E5FC"/>
<text class="token_font" x="554.0" y="32.5">&gt;</text>
<line x1="517.0" y1="24.0" x2="531.0" y2="24.0" stroke="#000000" stroke-width="2" fill="#fff" marker-end="url(#arrow)" />
<line x1="11" y1="24.0" x2="25.0" y2="24.0" stroke="#000000" stroke-width="2" fill="#fff" marker-end="url(#arrow)" />
<circle cx="593.0" cy="24.0" r="3.0" stroke="#000000" stroke-width="2" fill="#FFFFFF"/>
<line x1="572.0" y1="24.0" x2="586.0" y2="24.0" stroke="#000000" stroke-width="2" fill="#fff" marker-end="url(#arrow)" />
</svg>